<svg width="324" height="346" viewBox="0 0 324 346" fill="none" xmlns="http://www.w3.org/2000/svg">
<path opacity="0.2" d="M125.283 272.577L188.335 260.821C188.335 260.821 202.599 305.828 205.476 311.649L203.97 315.181L204.919 321.093L142.259 335.343L137.235 331.381L125.283 272.577Z" fill="black" fill-opacity="0.7"/>
<path d="M183.754 255.997L122.801 270.428L137.232 331.38L198.185 316.949L183.754 255.997Z" fill="white"/>
<path opacity="0.2" d="M187.649 272.442L197.763 315.151L139.637 328.911C132.633 311.386 127.278 289.319 127.278 289.319L187.649 272.442Z" fill="black" fill-opacity="0.7"/>
<path d="M183.754 255.997L122.801 270.428L137.232 331.38L198.185 316.949L183.754 255.997Z" stroke="#263238" stroke-linecap="round" stroke-linejoin="round"/>
<path d="M200.09 313.067C184.855 316.674 163.278 320.063 150.264 321.976C143.486 322.97 138.967 323.558 138.967 323.558C133.198 313.014 122.79 270.432 122.79 270.432L183.74 256.002C183.861 256.522 183.966 257.042 184.079 257.554C191.347 290.488 200.09 313.067 200.09 313.067Z" fill="white"/>
<path opacity="0.4" d="M200.091 313.065C184.855 316.673 163.278 320.062 150.264 321.975C140.473 315.475 138.131 309.104 138.252 303.026C138.38 295.811 169.815 302.861 176.383 295.713C181.067 290.615 180.901 268.977 184.095 257.552C191.347 290.487 200.091 313.065 200.091 313.065Z" fill="white"/>
<path d="M200.09 313.067C184.855 316.674 163.278 320.063 150.264 321.976C143.486 322.97 138.967 323.558 138.967 323.558C133.198 313.014 122.79 270.432 122.79 270.432L183.74 256.002C183.861 256.522 183.966 257.042 184.079 257.554C191.347 290.488 200.09 313.067 200.09 313.067Z" stroke="#263238" stroke-linecap="round" stroke-linejoin="round"/>
<path d="M133.092 279.649C133.919 278.685 134.911 277.877 136.022 277.262L136.926 279.581L140.082 278.436C141.136 278.052 142.341 277.555 142.71 276.508C143.29 277.887 145.293 277.653 146.717 277.201C156.572 274.029 166.638 271.555 176.842 269.798" stroke="#263238" stroke-linecap="round" stroke-linejoin="round"/>
<path d="M134.621 288.084C133.966 287.745 134.508 286.578 135.246 286.623C135.984 286.668 136.458 287.481 136.519 288.219C136.845 288.184 137.152 288.046 137.395 287.825C137.639 287.605 137.806 287.313 137.874 286.992L138.921 287.745C138.834 287.615 138.774 287.469 138.746 287.315C138.718 287.161 138.721 287.003 138.756 286.851C138.791 286.699 138.857 286.555 138.949 286.429C139.042 286.303 139.159 286.197 139.294 286.118C139.429 286.039 139.579 285.989 139.734 285.97C139.89 285.952 140.047 285.965 140.197 286.009C140.347 286.054 140.486 286.128 140.606 286.229C140.726 286.329 140.824 286.453 140.894 286.593C140.819 285.734 141.15 284.499 141.986 284.695C142.247 284.802 142.485 284.958 142.687 285.154C142.942 285.31 143.23 285.403 143.528 285.425C143.826 285.448 144.125 285.401 144.401 285.286C144.677 285.172 144.922 284.994 145.116 284.767C145.311 284.539 145.448 284.27 145.519 283.979C146.339 284.913 147.778 284.785 149.036 284.574L160.001 282.707C160.107 282.014 160.453 281.125 161.146 281.2C161.545 281.261 161.809 281.645 162.155 281.856C162.689 282.079 163.286 282.101 163.835 281.916C168.774 280.845 173.622 279.387 178.332 277.555" stroke="#263238" stroke-linecap="round" stroke-linejoin="round"/>
<path d="M138.402 297.687C139.867 297.815 141.342 297.611 142.717 297.092C142.474 296.577 142.412 295.996 142.542 295.442C142.672 294.888 142.986 294.394 143.433 294.041L144.758 294.892C150.096 294.766 155.402 294.033 160.574 292.708C162.886 292.121 165.176 291.405 167.457 290.69L180.456 286.638" stroke="#263238" stroke-linecap="round" stroke-linejoin="round"/>
<path opacity="0.2" d="M239.125 30.711L237.913 30.7864C237.354 30.8511 236.791 30.7135 236.325 30.3984C235.86 30.0834 235.522 29.6118 235.375 29.0692C233.522 22.3288 226.744 18.5405 218.919 19.0301C211.855 19.4669 204.406 23.9254 200.091 30.0859C199.561 30.8935 198.858 31.5737 198.034 32.0776C197.21 32.5815 196.284 32.8967 195.323 33.0005L189.298 33.3771C188.476 33.4531 187.65 33.2629 186.944 32.8344C186.238 32.406 185.687 31.7619 185.375 30.9972C182.942 25.2509 176.774 21.6434 169.702 22.0802C161.862 22.5622 153.758 27.2693 149.729 34.3788C149.411 34.9509 148.959 35.4379 148.412 35.7985C147.866 36.159 147.24 36.3824 146.589 36.4499L145.376 36.5252C145.092 36.5565 144.825 36.679 144.616 36.8745C144.407 37.07 144.267 37.3279 144.216 37.6097L143.742 40.6222C143.713 40.7232 143.705 40.8292 143.72 40.9333C143.734 41.0375 143.77 41.1374 143.825 41.2268C143.881 41.3162 143.954 41.393 144.041 41.4523C144.128 41.5116 144.226 41.5521 144.329 41.5711L145.79 42.0154C146.357 42.184 146.847 42.5445 147.177 43.0351C147.507 43.5257 147.656 44.1158 147.598 44.7041C147.086 54.3516 153.894 61.4386 163.587 60.8436C172.933 60.2637 181.827 52.7174 184.735 43.4163C184.98 42.6633 185.409 41.9829 185.982 41.4362C186.555 40.8894 187.254 40.4933 188.018 40.2833C190.09 39.7374 192.246 39.5841 194.375 39.8314C195.053 39.9104 195.676 40.2417 196.121 40.7593C196.566 41.277 196.801 41.9432 196.777 42.6255C196.777 51.776 203.427 58.3733 212.788 57.7934C222.496 57.206 231.699 49.1551 234.275 39.3644C234.461 38.6867 234.801 38.0615 235.271 37.5385C235.74 37.0156 236.325 36.6093 236.979 36.3519L238.613 35.7269C238.842 35.649 239.045 35.5117 239.202 35.329C239.36 35.1463 239.466 34.9249 239.509 34.6875L239.991 31.675C240.031 31.5503 240.037 31.4175 240.009 31.2897C239.981 31.1619 239.92 31.0435 239.833 30.9462C239.746 30.849 239.634 30.7761 239.51 30.7349C239.386 30.6936 239.254 30.6854 239.125 30.711V30.711ZM164.001 58.298C154.963 58.8553 148.856 51.7609 150.317 42.4824C151.778 33.2039 160.303 25.1605 169.318 24.6408C178.333 24.1212 184.463 31.178 182.995 40.4565C181.526 49.735 173.016 57.7407 164.001 58.298ZM185.683 38.4984C185.719 37.9963 185.734 37.4766 185.729 36.9394C185.738 36.7247 185.823 36.5204 185.97 36.3631C186.116 36.2058 186.314 36.1057 186.527 36.0808L197.312 35.4181C197.405 35.4092 197.5 35.4248 197.585 35.4634C197.671 35.502 197.746 35.5622 197.801 35.6382C197.856 35.7141 197.891 35.8032 197.902 35.8967C197.912 35.9901 197.899 36.0847 197.862 36.1712C197.696 36.6909 197.545 37.2105 197.41 37.7377C192.77 36.3896 188.139 37.6021 185.683 38.4984ZM213.188 55.2479C204.15 55.8052 198.042 48.7107 199.511 39.4322C200.979 30.1537 209.49 22.1103 218.505 21.5907C227.52 21.071 233.65 28.1278 232.189 37.4063C230.728 46.6848 222.225 54.6906 213.188 55.2479Z" fill="black" fill-opacity="0.7"/>
<path d="M231.391 32.5864L162.284 41.7595C160.652 41.9762 159.084 42.5325 157.68 43.3925C156.277 44.2526 155.069 45.3972 154.135 46.7527L144.021 61.4688C143.928 61.6056 143.867 61.7615 143.843 61.925C143.819 62.0885 143.832 62.2553 143.881 62.4131C143.93 62.5708 144.015 62.7155 144.127 62.8362C144.24 62.957 144.379 63.0508 144.533 63.1106V63.1106C145.21 63.3711 145.956 63.3954 146.649 63.1794C147.342 62.9635 147.942 62.52 148.351 61.9207L157.705 48.3644C158.261 47.5528 158.981 46.8659 159.817 46.3473C160.653 45.8287 161.588 45.4897 162.563 45.3519L231.639 35.5613L231.391 32.5864Z" fill="#263238"/>
<path d="M138.162 38.4006L207.856 37.2484C209.504 37.2252 211.139 37.5484 212.654 38.197C214.169 38.8457 215.532 39.8054 216.653 41.014L228.838 54.0732C228.95 54.1941 229.034 54.3389 229.082 54.4967C229.131 54.6545 229.143 54.8213 229.117 54.9844C229.092 55.1475 229.03 55.3027 228.936 55.4383C228.842 55.574 228.718 55.6866 228.575 55.7677C227.944 56.1271 227.21 56.2632 226.493 56.1539C225.775 56.0445 225.116 55.6962 224.621 55.1652L213.361 43.1152C212.688 42.3931 211.871 41.8193 210.963 41.4303C210.056 41.0413 209.077 40.8456 208.09 40.8558L138.32 41.383L138.162 38.4006Z" fill="#263238"/>
<path d="M180.404 42.8363C181.263 42.9944 181.225 48.8613 179.282 50.842C177.339 52.8227 175.351 48.0027 175.855 46.2705C176.36 44.5383 177.716 42.3242 180.404 42.8363Z" fill="white" stroke="#263238" stroke-linecap="round" stroke-linejoin="round"/>
<path d="M192.515 42.0831C191.686 42.3542 192.447 48.1081 194.616 49.893C196.785 51.6779 198.171 46.5868 197.455 44.9375C196.74 43.2881 195.113 41.2471 192.515 42.0831Z" fill="white" stroke="#263238" stroke-linecap="round" stroke-linejoin="round"/>
<path opacity="0.5" d="M149.338 29.107C152.983 25.9891 160.702 20.6795 169.153 25.733C177.603 30.7865 180.517 36.2768 178.785 43.7101C177.053 51.1435 171.728 61.0847 159.204 59.3525C146.679 57.6204 138.018 38.7922 149.338 29.107Z" fill="white"/>
<path opacity="0.5" d="M198.615 26.7043C202.26 23.5863 209.972 18.2693 218.423 23.3227C226.873 28.3762 229.795 33.8665 228.055 41.2998C226.315 48.7332 221.006 58.6744 208.474 56.9422C195.942 55.2101 187.288 36.3518 198.615 26.7043Z" fill="white"/>
<path d="M232.829 31.5319L231.617 31.6072C231.016 31.6469 230.417 31.5106 229.893 31.215C229.368 30.9194 228.941 30.4773 228.664 29.9428C225.305 23.4057 217.616 19.7455 209.776 20.2275C206.313 20.4533 202.966 21.5615 200.053 23.4466C197.139 25.3318 194.757 27.9311 193.132 30.9972C192.742 31.7944 192.15 32.4757 191.416 32.9738C190.681 33.4718 189.829 33.7692 188.945 33.8365L182.92 34.2055C182.031 34.2522 181.146 34.0646 180.353 33.6614C179.56 33.2583 178.887 32.6538 178.401 31.9085C176.409 29.0663 173.724 26.7811 170.599 25.2703C167.475 23.7596 164.016 23.0736 160.552 23.2777C152.712 23.7672 145.534 28.3462 143.011 35.2524C142.802 35.8162 142.432 36.3067 141.948 36.6638C141.464 37.021 140.886 37.2292 140.285 37.2632L139.073 37.3385C138.808 37.3559 138.561 37.4775 138.386 37.6765C138.211 37.8756 138.122 38.1359 138.139 38.4004L138.319 41.3451C138.335 41.5653 138.422 41.7744 138.567 41.9404C138.713 42.1064 138.909 42.22 139.125 42.264L140.707 42.6857C141.32 42.841 141.876 43.1691 142.309 43.631C142.741 44.0929 143.032 44.6692 143.147 45.2915C143.865 49.8331 146.221 53.9549 149.769 56.8794C153.317 59.8039 157.813 61.3289 162.408 61.1667C167.003 61.0046 171.38 59.1666 174.713 55.9993C178.047 52.832 180.106 48.5545 180.502 43.9735C180.585 43.2624 180.882 42.5931 181.354 42.055C181.826 41.5168 182.451 41.1353 183.145 40.961C185.212 40.4153 187.363 40.262 189.487 40.5092C190.205 40.6014 190.878 40.9102 191.416 41.3946C191.954 41.879 192.332 42.5159 192.499 43.2204C193.436 47.7403 196.001 51.7585 199.706 54.5116C203.411 57.2647 207.998 58.5608 212.596 58.1537C217.194 57.7466 221.482 55.6647 224.646 52.3034C227.81 48.9422 229.628 44.5359 229.756 39.9217C229.79 39.2924 230.004 38.686 230.373 38.1747C230.741 37.6633 231.249 37.2686 231.835 37.0373L233.341 36.4197C233.55 36.3493 233.73 36.2126 233.854 36.0304C233.977 35.8482 234.038 35.6305 234.027 35.4105L233.838 32.4658C233.825 32.2094 233.712 31.9685 233.523 31.7941C233.335 31.6197 233.086 31.5257 232.829 31.5319V31.5319ZM162.728 58.4411C159.495 58.6424 156.274 57.8799 153.474 56.25C150.674 54.6202 148.421 52.1962 146.999 49.285C145.577 46.3739 145.051 43.1063 145.487 39.8959C145.923 36.6856 147.302 33.6768 149.449 31.2503C151.595 28.8239 154.414 27.089 157.547 26.2651C160.681 25.4412 163.988 25.5654 167.051 26.622C170.113 27.6786 172.794 29.6201 174.752 32.2008C176.711 34.7814 177.86 37.8852 178.054 41.1192C178.308 45.4459 176.838 49.6971 173.966 52.9431C171.094 56.1891 167.054 58.1658 162.728 58.4411ZM180.351 39.1912C180.269 38.6791 180.171 38.1745 180.05 37.6849C180.027 37.588 180.025 37.4872 180.045 37.3895C180.065 37.2919 180.107 37.1999 180.166 37.12C180.226 37.0402 180.302 36.9745 180.39 36.9277C180.478 36.8808 180.576 36.854 180.675 36.849L191.46 36.1787C191.562 36.1666 191.665 36.1777 191.762 36.2113C191.859 36.2449 191.947 36.3 192.019 36.3725C192.092 36.445 192.147 36.533 192.181 36.6299C192.214 36.7268 192.225 36.83 192.213 36.9318C192.16 37.4289 192.123 37.941 192.1 38.4381C188.208 37.4684 184.11 37.7316 180.374 39.1912H180.351ZM211.937 55.3909C208.704 55.5923 205.483 54.8297 202.683 53.1999C199.883 51.57 197.63 49.1461 196.208 46.2349C194.786 43.3237 194.26 40.0561 194.696 36.8458C195.132 33.6354 196.511 30.6266 198.658 28.2002C200.805 25.7738 203.623 24.0388 206.756 23.2149C209.89 22.391 213.197 22.5153 216.26 23.5719C219.322 24.6285 222.003 26.57 223.962 29.1506C225.92 31.7313 227.07 34.835 227.264 38.069C227.519 42.3926 226.053 46.6416 223.186 49.8874C220.318 53.1332 216.282 55.1119 211.96 55.3909H211.937Z" fill="#757575" stroke="#263238" stroke-linecap="round" stroke-linejoin="round"/>
<path opacity="0.4" d="M150.678 52.6496C150.678 52.6496 144.653 44.674 148.901 35.4105C152.734 27.081 161.704 26.132 165.959 27.8793L156.703 44.0865C157.555 40.1278 158.83 36.2722 160.506 32.5863C160.506 32.5863 152.328 40.8707 150.678 52.6496Z" fill="white"/>
<path opacity="0.4" d="M199.767 49.1549C199.767 49.1549 193.742 41.1868 197.989 31.9233C201.823 23.5862 210.792 22.6373 215.04 24.3921L205.754 40.5692C206.454 34.7626 209.595 29.0841 209.595 29.0841C209.595 29.0841 201.408 37.3609 199.767 49.1549Z" fill="white"/>
<path opacity="0.2" d="M23.0988 189.869L25.2829 199.682L27.7757 188.574L21.2235 77.6156H16.7575L23.0988 189.869Z" fill="black" fill-opacity="0.7"/>
<path d="M19.1077 76.2674L25.2833 187.881L23.0239 197.061L19.7554 188.189L13.5647 76.5686C13.5504 76.3828 13.5733 76.1959 13.6321 76.019C13.6909 75.8422 13.7844 75.6788 13.9071 75.5385C14.0299 75.3982 14.1794 75.2839 14.3469 75.2021C14.5144 75.1203 14.6966 75.0728 14.8827 75.0624L17.6316 74.9117C17.818 74.9016 18.0046 74.9289 18.1804 74.9919C18.3561 75.0549 18.5175 75.1524 18.6551 75.2787C18.7926 75.405 18.9035 75.5576 18.9812 75.7273C19.0589 75.8971 19.1019 76.0807 19.1077 76.2674V76.2674Z" fill="white"/>
<path opacity="0.2" d="M23.0083 197.063L19.7398 188.191L13.5641 76.57C13.5498 76.3841 13.5727 76.1973 13.6315 76.0204C13.6903 75.8435 13.7838 75.6802 13.9066 75.5399C14.0293 75.3996 14.1788 75.2852 14.3464 75.2035C14.5139 75.1217 14.696 75.0742 14.8821 75.0637H15.2662L21.487 187.498L23.0083 197.063Z" fill="black" fill-opacity="0.7"/>
<path d="M19.1077 76.2674L25.2833 187.881L23.0239 197.061L19.7554 188.189L13.5647 76.5686C13.5504 76.3828 13.5733 76.1959 13.6321 76.019C13.6909 75.8422 13.7844 75.6788 13.9071 75.5385C14.0299 75.3982 14.1794 75.2839 14.3469 75.2021C14.5144 75.1203 14.6966 75.0728 14.8827 75.0624L17.6316 74.9117C17.818 74.9016 18.0046 74.9289 18.1804 74.9919C18.3561 75.0549 18.5175 75.1524 18.6551 75.2787C18.7926 75.405 18.9035 75.5576 18.9812 75.7273C19.0589 75.8971 19.1019 76.0807 19.1077 76.2674V76.2674Z" stroke="#263238" stroke-linecap="round" stroke-linejoin="round"/>
<path d="M15.3712 77.0205L21.3962 186.593C21.4029 186.717 21.4342 186.84 21.4882 186.952C21.5422 187.065 21.6179 187.166 21.711 187.249C21.804 187.332 21.9126 187.396 22.0305 187.437C22.1483 187.479 22.2732 187.496 22.3978 187.489H23.0606" fill="white"/>
<path d="M15.3712 77.0205L21.3962 186.593C21.4029 186.717 21.4342 186.84 21.4882 186.952C21.5422 187.065 21.6179 187.166 21.711 187.249C21.804 187.332 21.9126 187.396 22.0305 187.437C22.1483 187.479 22.2732 187.496 22.3978 187.489H23.0606" stroke="#263238" stroke-linecap="round" stroke-linejoin="round"/>
<path opacity="0.2" d="M42.7928 210.67L63.2101 77.2693C63.8393 73.1682 66.0714 69.4847 69.4157 67.0288C72.7599 64.5728 76.9426 63.5454 81.0441 64.1725L277.09 94.1845C279.121 94.4943 281.071 95.2012 282.829 96.2648C284.587 97.3284 286.118 98.7278 287.335 100.383C288.552 102.039 289.431 103.918 289.921 105.913C290.412 107.908 290.505 109.98 290.195 112.011L269.77 245.412C269.462 247.444 268.756 249.396 267.693 251.155C266.63 252.914 265.231 254.447 263.575 255.664C261.92 256.882 260.04 257.762 258.044 258.252C256.048 258.743 253.975 258.835 251.943 258.524L55.8897 228.504C51.7885 227.875 48.1051 225.643 45.6491 222.299C43.1932 218.955 42.1658 214.772 42.7928 210.67V210.67Z" fill="black" fill-opacity="0.7"/>
<path d="M58.5278 82.2882L60.0782 72.1561C60.1085 71.9587 60.2159 71.7814 60.3768 71.6631C60.5378 71.5449 60.7392 71.4954 60.9366 71.5256L65.2098 72.1795L63.4327 83.7931L59.1595 83.1392C58.9633 83.1092 58.7869 83.003 58.6687 82.8436C58.5504 82.6843 58.4998 82.4847 58.5278 82.2882Z" fill="white" stroke="#263238" stroke-linecap="round" stroke-linejoin="round"/>
<path d="M85.0711 60.9487L95.2032 62.4991C95.4006 62.5294 95.578 62.6368 95.6962 62.7977C95.8145 62.9587 95.8639 63.1601 95.8337 63.3575L95.1798 67.6307L83.5662 65.8536L84.2201 61.5804C84.2501 61.3842 84.3564 61.2078 84.5157 61.0896C84.675 60.9713 84.8746 60.9207 85.0711 60.9487V60.9487Z" fill="white" stroke="#263238" stroke-linecap="round" stroke-linejoin="round"/>
<path d="M98.88 63.0578L109.012 64.6083C109.21 64.6385 109.387 64.7459 109.505 64.9069C109.623 65.0679 109.673 65.2692 109.643 65.4667L108.989 69.7399L97.3751 67.9627L98.029 63.6895C98.059 63.4934 98.1653 63.317 98.3246 63.1987C98.4839 63.0804 98.6835 63.0298 98.88 63.0578V63.0578Z" fill="white" stroke="#263238" stroke-linecap="round" stroke-linejoin="round"/>
<path d="M40.5338 207.659L60.951 74.2582C61.5803 70.157 63.8124 66.4736 67.1566 64.0177C70.5009 61.5617 74.6835 60.5343 78.785 61.1614L274.831 91.1734C276.862 91.4832 278.812 92.1901 280.57 93.2537C282.328 94.3172 283.859 95.7167 285.076 97.3721C286.293 99.0275 287.172 100.906 287.662 102.902C288.153 104.897 288.246 106.969 287.936 109L267.511 242.401C267.203 244.433 266.497 246.385 265.434 248.144C264.371 249.903 262.972 251.435 261.316 252.653C259.661 253.871 257.781 254.751 255.785 255.241C253.789 255.732 251.716 255.824 249.684 255.513L53.6307 225.493C49.5295 224.864 45.846 222.632 43.3901 219.288C40.9342 215.944 39.9068 211.761 40.5338 207.659V207.659Z" fill="white" stroke="#263238" stroke-linecap="round" stroke-linejoin="round"/>
<path d="M250.453 253.847L53.3897 223.684C51.6521 223.42 49.9837 222.815 48.4799 221.905C46.9761 220.995 45.6664 219.798 44.6256 218.382C43.5848 216.965 42.8334 215.358 42.4143 213.651C41.9953 211.944 41.9167 210.171 42.1832 208.434L62.7586 74.0083C63.2951 70.4999 65.2032 67.3484 68.0632 65.2468C70.9232 63.1452 74.5009 62.2657 78.0094 62.8018L275.08 92.9645C278.588 93.5047 281.738 95.4148 283.839 98.2755C285.94 101.136 286.82 104.714 286.286 108.223L265.711 242.641C265.445 244.379 264.84 246.047 263.929 247.551C263.019 249.055 261.82 250.365 260.404 251.405C258.987 252.446 257.378 253.197 255.671 253.616C253.964 254.035 252.19 254.114 250.453 253.847Z" fill="#757575" stroke="#263238" stroke-linecap="round" stroke-linejoin="round"/>
<path d="M55.7845 141.729C55.7595 141.875 55.6921 142.01 55.5908 142.118C55.4895 142.225 55.3587 142.301 55.2148 142.335C55.0709 142.369 54.9202 142.359 54.7814 142.308C54.6427 142.257 54.5222 142.166 54.4348 142.047C54.3474 141.928 54.297 141.785 54.29 141.637C54.2829 141.49 54.3195 141.343 54.3952 141.216C54.4709 141.089 54.5823 140.987 54.7155 140.923C54.8487 140.859 54.9979 140.835 55.1444 140.855C55.2445 140.869 55.3408 140.903 55.4277 140.955C55.5145 141.006 55.59 141.075 55.6497 141.156C55.7095 141.238 55.7522 141.331 55.7753 141.429C55.7985 141.527 55.8016 141.629 55.7845 141.729Z" fill="#999999" stroke="#263238" stroke-linecap="round" stroke-linejoin="round"/>
<path d="M55.4159 148.741C55.34 149.11 55.1253 149.435 54.8162 149.65C54.5071 149.865 54.1272 149.953 53.755 149.896C53.3828 149.839 53.0467 149.642 52.8162 149.344C52.5857 149.046 52.4783 148.671 52.5164 148.296C52.5923 147.928 52.807 147.602 53.1161 147.387C53.4252 147.172 53.8051 147.084 54.1773 147.141C54.5495 147.198 54.8856 147.396 55.1161 147.693C55.3466 147.991 55.4539 148.366 55.4159 148.741V148.741Z" fill="#263238"/>
<path d="M57.9986 131.863C57.9227 132.232 57.708 132.558 57.3989 132.773C57.0898 132.988 56.7099 133.076 56.3377 133.019C55.9655 132.962 55.6294 132.764 55.3989 132.466C55.1684 132.168 55.061 131.794 55.0991 131.419C55.1192 131.221 55.1794 131.029 55.276 130.855C55.3726 130.681 55.5037 130.528 55.6611 130.406C55.8186 130.284 55.9992 130.195 56.192 130.146C56.3848 130.096 56.5858 130.085 56.7826 130.116C56.9795 130.146 57.1681 130.216 57.3371 130.321C57.5061 130.426 57.6519 130.565 57.7657 130.728C57.8794 130.892 57.9587 131.077 57.9988 131.272C58.0388 131.467 58.0387 131.668 57.9986 131.863V131.863Z" fill="#263238"/>
<path d="M54.2783 153.478C54.2461 153.687 54.1527 153.882 54.0099 154.038C53.8671 154.194 53.6812 154.304 53.4759 154.354C53.2705 154.404 53.0549 154.393 52.8562 154.32C52.6574 154.248 52.4846 154.119 52.3594 153.948C52.2342 153.778 52.1624 153.574 52.1529 153.363C52.1435 153.152 52.1968 152.943 52.3063 152.762C52.4157 152.581 52.5763 152.436 52.7678 152.347C52.9593 152.257 53.173 152.226 53.3821 152.258C53.5211 152.279 53.6545 152.327 53.7749 152.4C53.8952 152.473 53.9999 152.569 54.0832 152.682C54.1664 152.795 54.2265 152.924 54.26 153.061C54.2935 153.197 54.2997 153.339 54.2783 153.478V153.478Z" fill="#263238"/>
<path d="M281.338 105.911L260.303 243.371C260.038 245.103 259.095 246.66 257.683 247.697C256.271 248.735 254.505 249.17 252.772 248.907L87.6794 223.639L84.1021 223.127L70.6437 221.063L64.1292 220.069L54.7151 218.608L52.6591 218.292C50.9267 218.026 49.3706 217.084 48.3327 215.672C47.2947 214.26 46.8599 212.493 47.1236 210.761L68.1659 73.2551C68.2964 72.3971 68.5949 71.5733 69.0442 70.8309C69.4936 70.0884 70.085 69.442 70.7846 68.9284C71.4842 68.4149 72.2782 68.0445 73.1212 67.8384C73.9642 67.6322 74.8396 67.5944 75.6972 67.7271L137.325 77.1563L146.649 78.5872L155.559 79.9504L167.006 81.6976L171.148 82.3302L275.833 98.3492C276.691 98.4841 277.514 98.7866 278.255 99.2396C278.996 99.6926 279.641 100.287 280.152 100.989C280.663 101.692 281.031 102.488 281.235 103.332C281.438 104.176 281.473 105.053 281.338 105.911V105.911Z" fill="#263238"/>
<g opacity="0.1">
<path opacity="0.1" d="M126.578 222.374L56.5377 211.657C56.0826 211.586 55.674 211.338 55.4015 210.967C55.1291 210.596 55.0149 210.131 55.0842 209.676L62.0355 164.24C62.1078 163.784 62.3575 163.376 62.73 163.103C63.1025 162.831 63.5676 162.717 64.0238 162.787L134.064 173.504C134.29 173.538 134.507 173.616 134.702 173.734C134.898 173.852 135.068 174.008 135.203 174.192C135.338 174.376 135.436 174.585 135.49 174.807C135.544 175.028 135.553 175.259 135.518 175.484L128.567 220.92C128.532 221.146 128.453 221.363 128.334 221.559C128.215 221.754 128.059 221.924 127.874 222.059C127.689 222.195 127.48 222.292 127.257 222.346C127.035 222.4 126.804 222.409 126.578 222.374ZM63.956 163.389C63.8091 163.367 63.6592 163.373 63.5149 163.409C63.3706 163.445 63.2348 163.508 63.1152 163.596C62.9955 163.684 62.8945 163.795 62.8178 163.923C62.7411 164.05 62.6902 164.191 62.6681 164.338L55.7168 209.767C55.6943 209.913 55.7011 210.063 55.7367 210.208C55.7722 210.352 55.8359 210.488 55.9241 210.607C56.0122 210.727 56.1231 210.828 56.2504 210.905C56.3776 210.981 56.5188 211.032 56.6657 211.054L126.669 221.771C126.816 221.794 126.966 221.787 127.11 221.751C127.254 221.716 127.39 221.652 127.51 221.564C127.629 221.476 127.73 221.365 127.807 221.238C127.884 221.111 127.935 220.969 127.957 220.822L134.915 175.394C134.959 175.097 134.884 174.794 134.706 174.552C134.529 174.31 134.263 174.147 133.967 174.099L63.956 163.389Z" fill="white"/>
</g>
<path opacity="0.4" d="M85.0814 190.886L100.761 199.78C102.422 196.736 103.193 193.286 102.988 189.823C102.783 186.361 101.61 183.027 99.6016 180.199L85.0814 190.886Z" fill="white"/>
<path opacity="0.6" d="M85.2318 189.99L99.2399 179.694C97.3469 177.2 94.8513 175.228 91.9873 173.963L89.2234 180.515L85.2318 189.99Z" fill="white"/>
<path d="M87.6194 172.668L85.1943 188.484L91.4302 173.7C90.2001 173.222 88.9226 172.876 87.6194 172.668V172.668Z" fill="white"/>
<path opacity="0.1" d="M84.2528 190.697L87.0168 172.622C83.8424 172.188 80.6097 172.587 77.6357 173.779C74.6617 174.971 72.0484 176.915 70.0521 179.421C68.0557 181.926 66.7448 184.908 66.2478 188.073C65.7508 191.238 66.0848 194.478 67.2171 197.475L84.2528 190.697Z" fill="white"/>
<path opacity="0.2" d="M81.7226 209.194C85.377 209.753 89.1151 209.204 92.4548 207.619C95.7946 206.034 98.5829 203.485 100.46 200.3L84.5016 191.262L67.4358 198.003C68.6541 200.939 70.609 203.512 73.1116 205.472C75.6142 207.432 78.58 208.714 81.7226 209.194Z" fill="white"/>
<path d="M113.595 180.008L111.518 179.69C111.259 179.651 111.017 179.829 110.977 180.088L110.66 182.165C110.62 182.424 110.798 182.666 111.057 182.705L113.134 183.023C113.393 183.063 113.635 182.885 113.675 182.626L113.992 180.549C114.032 180.29 113.854 180.048 113.595 180.008Z" fill="white"/>
<path d="M124.884 182.873L115.809 181.479C115.763 181.473 115.719 181.458 115.68 181.434C115.64 181.41 115.606 181.379 115.578 181.342C115.551 181.304 115.531 181.262 115.52 181.217C115.51 181.172 115.508 181.126 115.515 181.08C115.522 181.035 115.537 180.991 115.561 180.951C115.585 180.911 115.616 180.877 115.653 180.849C115.69 180.822 115.733 180.802 115.777 180.792C115.822 180.781 115.869 180.779 115.915 180.787L124.952 182.18C124.998 182.186 125.042 182.202 125.081 182.225C125.121 182.249 125.156 182.28 125.183 182.318C125.21 182.355 125.23 182.397 125.241 182.442C125.252 182.487 125.253 182.533 125.246 182.579C125.23 182.663 125.185 182.738 125.119 182.792C125.052 182.846 124.969 182.874 124.884 182.873V182.873Z" fill="white"/>
<path d="M121.879 183.965L115.575 183.001C115.529 182.994 115.486 182.979 115.446 182.955C115.406 182.932 115.372 182.9 115.344 182.863C115.317 182.826 115.297 182.784 115.287 182.739C115.276 182.694 115.274 182.647 115.281 182.602C115.296 182.51 115.346 182.428 115.421 182.373C115.496 182.318 115.589 182.295 115.681 182.308L121.984 183.272C122.03 183.278 122.074 183.294 122.114 183.318C122.153 183.341 122.188 183.373 122.215 183.41C122.243 183.447 122.262 183.489 122.273 183.534C122.284 183.579 122.285 183.626 122.278 183.671C122.272 183.717 122.256 183.761 122.232 183.8C122.209 183.84 122.177 183.875 122.14 183.902C122.103 183.929 122.061 183.949 122.016 183.96C121.971 183.971 121.924 183.972 121.879 183.965V183.965Z" fill="white"/>
<path opacity="0.6" d="M112.564 186.756L110.487 186.438C110.228 186.399 109.986 186.577 109.946 186.836L109.628 188.913C109.589 189.172 109.766 189.414 110.025 189.453L112.102 189.771C112.361 189.811 112.604 189.633 112.643 189.374L112.961 187.297C113.001 187.038 112.823 186.796 112.564 186.756Z" fill="white"/>
<path d="M123.852 189.613L114.769 188.227C114.679 188.211 114.598 188.16 114.543 188.086C114.489 188.012 114.464 187.919 114.476 187.828C114.49 187.737 114.541 187.655 114.615 187.6C114.69 187.545 114.783 187.521 114.875 187.534L123.957 188.928C124.002 188.934 124.046 188.95 124.085 188.974C124.123 188.997 124.157 189.028 124.184 189.065C124.211 189.102 124.231 189.144 124.241 189.188C124.252 189.232 124.254 189.278 124.247 189.323C124.24 189.368 124.225 189.411 124.201 189.45C124.177 189.489 124.146 189.523 124.11 189.55C124.073 189.577 124.031 189.596 123.987 189.607C123.943 189.618 123.897 189.62 123.852 189.613V189.613Z" fill="white"/>
<path d="M120.847 190.697L114.528 189.733C114.447 189.709 114.377 189.656 114.331 189.583C114.286 189.511 114.268 189.425 114.281 189.341C114.293 189.257 114.336 189.18 114.401 189.125C114.466 189.07 114.549 189.04 114.634 189.04L120.937 190.004C120.983 190.011 121.027 190.026 121.067 190.05C121.106 190.074 121.141 190.105 121.168 190.142C121.196 190.179 121.215 190.222 121.226 190.267C121.237 190.311 121.239 190.358 121.231 190.404C121.218 190.493 121.171 190.574 121.099 190.629C121.027 190.683 120.937 190.708 120.847 190.697Z" fill="white"/>
<path opacity="0.4" d="M112.003 193.645L109.923 193.33C109.663 193.29 109.421 193.469 109.382 193.728L109.067 195.808C109.027 196.068 109.206 196.31 109.465 196.349L111.545 196.665C111.805 196.704 112.047 196.525 112.086 196.266L112.401 194.186C112.441 193.926 112.262 193.684 112.003 193.645Z" fill="white"/>
<path d="M122.812 196.361L113.775 194.975C113.693 194.951 113.623 194.897 113.578 194.825C113.532 194.753 113.514 194.667 113.527 194.583C113.54 194.499 113.583 194.422 113.647 194.367C113.712 194.311 113.795 194.281 113.88 194.282L122.918 195.668C122.963 195.674 123.007 195.69 123.047 195.714C123.087 195.737 123.121 195.769 123.149 195.806C123.176 195.843 123.196 195.885 123.206 195.93C123.217 195.975 123.219 196.022 123.211 196.067C123.205 196.113 123.19 196.157 123.166 196.196C123.142 196.236 123.111 196.271 123.074 196.298C123.037 196.325 122.994 196.345 122.949 196.356C122.904 196.367 122.858 196.368 122.812 196.361V196.361Z" fill="white"/>
<path d="M119.8 197.445L113.496 196.481C113.415 196.457 113.345 196.403 113.299 196.331C113.253 196.259 113.235 196.173 113.248 196.089C113.261 196.005 113.304 195.928 113.369 195.873C113.434 195.817 113.516 195.787 113.602 195.788L119.905 196.752C119.987 196.777 120.057 196.83 120.102 196.902C120.148 196.974 120.166 197.06 120.153 197.144C120.14 197.229 120.097 197.305 120.033 197.361C119.968 197.416 119.885 197.446 119.8 197.445V197.445Z" fill="white"/>
<path opacity="0.2" d="M110.501 200.251L108.424 199.934C108.165 199.894 107.922 200.072 107.883 200.331L107.565 202.408C107.525 202.667 107.703 202.909 107.962 202.949L110.039 203.266C110.298 203.306 110.54 203.128 110.58 202.869L110.898 200.792C110.937 200.533 110.76 200.291 110.501 200.251Z" fill="white"/>
<path d="M121.781 203.109L112.743 201.723C112.652 201.708 112.57 201.658 112.515 201.584C112.46 201.509 112.437 201.416 112.45 201.324C112.456 201.278 112.472 201.234 112.495 201.195C112.519 201.155 112.55 201.121 112.588 201.093C112.625 201.066 112.667 201.046 112.712 201.035C112.757 201.025 112.803 201.023 112.849 201.03L121.924 202.416C121.97 202.422 122.014 202.438 122.053 202.462C122.093 202.485 122.128 202.517 122.155 202.554C122.182 202.591 122.202 202.633 122.213 202.678C122.224 202.723 122.225 202.77 122.218 202.815C122.212 202.865 122.196 202.913 122.17 202.955C122.143 202.998 122.109 203.035 122.067 203.063C122.026 203.091 121.978 203.109 121.929 203.117C121.88 203.125 121.829 203.122 121.781 203.109V203.109Z" fill="white"/>
<path d="M118.783 204.194L112.48 203.23C112.434 203.223 112.39 203.208 112.35 203.184C112.311 203.16 112.276 203.129 112.249 203.092C112.222 203.055 112.202 203.012 112.191 202.967C112.18 202.923 112.179 202.876 112.186 202.83C112.192 202.785 112.208 202.741 112.232 202.701C112.255 202.661 112.287 202.627 112.324 202.6C112.361 202.572 112.403 202.552 112.448 202.542C112.493 202.531 112.54 202.529 112.585 202.537L118.889 203.501C118.98 203.516 119.062 203.566 119.117 203.64C119.172 203.715 119.196 203.808 119.183 203.9C119.176 203.946 119.161 203.99 119.137 204.029C119.113 204.069 119.082 204.103 119.045 204.131C119.008 204.158 118.965 204.178 118.92 204.189C118.876 204.199 118.829 204.201 118.783 204.194V204.194Z" fill="white"/>
<path opacity="0.1" d="M109.469 207.007L107.392 206.689C107.133 206.649 106.891 206.827 106.851 207.086L106.534 209.163C106.494 209.422 106.672 209.664 106.931 209.704L109.008 210.022C109.267 210.061 109.509 209.884 109.549 209.624L109.867 207.547C109.906 207.288 109.728 207.046 109.469 207.007Z" fill="white"/>
<path d="M120.749 209.857L111.712 208.471C111.62 208.456 111.538 208.406 111.483 208.331C111.428 208.257 111.405 208.164 111.418 208.072C111.424 208.026 111.44 207.982 111.463 207.943C111.487 207.903 111.518 207.868 111.556 207.841C111.593 207.814 111.635 207.794 111.68 207.783C111.725 207.772 111.772 207.771 111.817 207.778L120.892 209.164C120.938 209.17 120.982 209.186 121.022 209.209C121.061 209.233 121.096 209.264 121.123 209.302C121.15 209.339 121.17 209.381 121.181 209.426C121.192 209.471 121.193 209.517 121.186 209.563C121.18 209.613 121.164 209.661 121.138 209.703C121.112 209.746 121.077 209.783 121.035 209.81C120.994 209.838 120.947 209.857 120.897 209.865C120.848 209.873 120.797 209.87 120.749 209.857V209.857Z" fill="white"/>
<path d="M117.752 210.942L111.441 209.978C111.395 209.97 111.352 209.954 111.314 209.93C111.275 209.906 111.241 209.875 111.214 209.838C111.188 209.8 111.169 209.758 111.159 209.714C111.148 209.67 111.147 209.623 111.154 209.578C111.16 209.532 111.175 209.488 111.198 209.448C111.221 209.407 111.253 209.372 111.29 209.345C111.328 209.317 111.37 209.298 111.416 209.287C111.461 209.277 111.508 209.276 111.554 209.285L117.857 210.249C117.908 210.249 117.958 210.261 118.004 210.282C118.05 210.304 118.091 210.335 118.123 210.373C118.156 210.412 118.18 210.457 118.194 210.506C118.208 210.555 118.211 210.606 118.204 210.656C118.196 210.706 118.178 210.754 118.15 210.796C118.122 210.839 118.086 210.875 118.043 210.902C118 210.929 117.952 210.947 117.902 210.953C117.851 210.96 117.8 210.956 117.752 210.942V210.942Z" fill="white"/>
<g opacity="0.1">
<path opacity="0.1" d="M258.496 192.535L144.653 175.115C144.197 175.046 143.732 175.16 143.359 175.432C142.987 175.705 142.737 176.113 142.665 176.569L142.183 179.702L142.093 180.304L141.445 184.53L141.355 185.132L140.707 189.35L140.616 189.944L139.969 194.17L139.878 194.764L139.231 198.99L139.14 199.592L138.493 203.81L138.402 204.412L137.755 208.63L137.664 209.232L137.017 213.45L136.926 214.052L136.278 218.27L136.188 218.872L135.714 222.005C135.678 222.231 135.688 222.462 135.742 222.684C135.796 222.906 135.893 223.116 136.028 223.301C136.163 223.485 136.333 223.642 136.529 223.76C136.724 223.879 136.941 223.958 137.167 223.993L250.987 241.413C251.442 241.48 251.906 241.364 252.275 241.09C252.645 240.816 252.891 240.407 252.96 239.952L253.442 236.819L253.533 236.217L254.18 231.999L254.271 231.397L254.918 227.171L255.009 226.576L255.656 222.359L255.747 221.756L256.394 217.539L256.485 216.936L257.133 212.711L257.223 212.116L257.871 207.891L257.961 207.296L258.609 203.079L258.699 202.476L259.347 198.251L259.437 197.649L259.919 194.516C259.989 194.065 259.879 193.605 259.613 193.234C259.346 192.864 258.945 192.613 258.496 192.535V192.535ZM252.395 239.862C252.349 240.158 252.188 240.423 251.947 240.601C251.705 240.778 251.404 240.854 251.108 240.811L137.295 223.391C136.997 223.344 136.73 223.182 136.551 222.94C136.372 222.697 136.295 222.394 136.339 222.095L136.821 218.962L252.87 236.729L252.395 239.862ZM252.968 236.096L136.911 218.337L137.559 214.112L253.608 231.879L252.968 236.096ZM253.721 231.276L137.649 213.547L138.297 209.322L254.346 227.081L253.721 231.276ZM254.474 226.456L138.417 208.69L139.065 204.472L255.114 222.231L254.474 226.456ZM255.227 221.636L139.17 203.87L139.818 199.652L255.867 217.419L255.227 221.636ZM255.98 216.816L139.924 199.05L140.571 194.825L256.62 212.591L255.98 216.816ZM256.733 211.988L140.677 194.23L141.324 190.012L257.374 207.771L256.733 211.988ZM257.487 207.168L141.34 189.44L141.987 185.222L258.036 202.981L257.487 207.168ZM258.24 202.356L142.078 184.62L142.725 180.395L258.774 198.161L258.24 202.356ZM142.929 179.762L143.411 176.637C143.433 176.49 143.484 176.349 143.56 176.221C143.637 176.094 143.738 175.983 143.858 175.895C143.977 175.807 144.113 175.743 144.257 175.708C144.402 175.672 144.552 175.665 144.698 175.688L258.375 193.138C258.671 193.184 258.936 193.346 259.112 193.587C259.289 193.829 259.362 194.13 259.317 194.426L258.835 197.559L142.929 179.762Z" fill="white"/>
</g>
<g opacity="0.1">
<path opacity="0.1" d="M270.651 111.454L76.7062 81.7655C76.4485 81.7259 76.1855 81.7376 75.9323 81.7999C75.6792 81.8622 75.4408 81.9739 75.2309 82.1285C75.021 82.2832 74.8437 82.4777 74.7091 82.7011C74.5746 82.9244 74.4854 83.172 74.4468 83.4299L63.5792 154.427C63.5012 154.946 63.6317 155.475 63.9421 155.898C64.2524 156.321 64.7176 156.605 65.2361 156.686L259.188 186.375C259.708 186.453 260.236 186.322 260.66 186.012C261.083 185.701 261.366 185.236 261.448 184.718L272.315 113.713C272.355 113.455 272.343 113.192 272.281 112.939C272.219 112.686 272.107 112.448 271.952 112.238C271.798 112.028 271.603 111.851 271.38 111.716C271.157 111.581 270.909 111.492 270.651 111.454V111.454ZM112.495 121.659L125.961 123.715L124.786 131.366L111.297 129.303L112.495 121.659ZM110.725 129.19L97.2063 127.164L98.3811 119.505L111.87 121.568L110.725 129.19ZM126.578 123.82L140.074 125.884L138.899 133.543L125.411 131.479L126.578 123.82ZM196.528 133.912L183.04 131.848L184.207 124.189L197.703 126.253L196.528 133.912ZM198.298 126.381L211.794 128.444L210.619 136.103L197.131 134.04L198.298 126.381ZM154.76 128.173L168.256 130.237L167.081 137.896L153.57 135.765L154.76 128.173ZM152.99 135.704L139.502 133.641L140.647 125.974L154.143 128.038L152.99 135.704ZM168.851 130.297L182.309 132.353L181.135 140.012L167.646 137.949L168.851 130.297ZM182.942 132.451L196.438 134.514L195.263 142.174L181.775 140.11L182.942 132.451ZM182.437 131.758L168.949 129.694L170.116 122.035L183.612 124.106L182.437 131.758ZM168.346 129.604L154.858 127.54L156.025 119.881L169.506 121.937L168.346 129.604ZM154.233 127.48L140.744 125.409L141.912 117.69L155.408 119.753L154.233 127.48ZM140.134 125.281L126.646 123.218L127.813 115.558L141.309 117.622L140.134 125.281ZM138.779 134.145L137.611 141.79L124.123 139.726L125.298 132.067L138.779 134.145ZM139.381 134.236L152.87 136.299L151.695 143.959L138.206 141.895L139.381 134.236ZM153.472 136.39L166.961 138.453L165.786 146.113L152.305 144.049L153.472 136.39ZM167.563 138.544L181.052 140.615L179.877 148.266L166.388 146.203L167.563 138.544ZM181.654 140.705L195.143 142.769L193.968 150.428L180.479 148.364L181.654 140.705ZM195.745 142.859L209.234 144.923L208.059 152.582L194.57 150.518L195.745 142.859ZM195.836 142.264L197.003 134.605L210.499 136.668L209.324 144.328L195.836 142.264ZM211.094 136.759L224.59 138.822L223.415 146.482L209.927 144.418L211.094 136.759ZM225.185 138.913L238.681 140.984L237.506 148.636L224.018 146.572L225.185 138.913ZM225.283 138.318L226.45 130.658L239.954 132.752L238.794 140.381L225.283 138.318ZM224.68 138.227L211.192 136.156L212.359 128.497L225.855 130.568L224.68 138.227ZM212.434 127.902L213.609 120.243L227.098 122.306L225.991 129.966L212.434 127.902ZM211.839 127.812L198.351 125.74L199.518 118.089L213.007 120.152L211.839 127.812ZM197.749 125.65L184.252 123.587L185.427 115.927L198.916 117.991L197.749 125.65ZM183.658 123.496L170.184 121.455L171.359 113.796L184.847 115.859L183.658 123.496ZM169.567 121.335L156.101 119.271L157.268 111.612L170.756 113.683L169.567 121.335ZM155.498 119.196L142.01 117.132L143.147 109.458L156.703 111.521L155.498 119.196ZM141.407 117.042L127.911 114.978L129.086 107.319L142.575 109.405L141.407 117.042ZM127.331 114.865L113.843 112.802L115.01 105.142L128.499 107.214L127.331 114.865ZM127.241 115.468L126.066 123.127L112.578 121.064L113.745 113.404L127.241 115.468ZM111.975 120.973L98.4866 118.902L99.6539 111.243L113.15 113.314L111.975 120.973ZM97.8841 118.812L84.4031 116.748L85.5705 109.089L99.0665 111.152L97.8841 118.812ZM97.7937 119.414L96.6188 127.074L83.1303 125.01L84.3052 117.351L97.7937 119.414ZM96.5284 127.699L95.3536 135.358L81.8651 133.294L83.04 125.635L96.5284 127.699ZM97.1309 127.797L110.619 129.86L109.445 137.519L95.9561 135.448L97.1309 127.797ZM111.222 129.95L124.695 131.999L123.52 139.658L110.009 137.58L111.222 129.95ZM123.43 140.283L122.255 147.943L108.767 145.872L109.942 138.212L123.43 140.283ZM124.033 140.374L137.521 142.437L136.369 150.074L122.873 148.01L124.033 140.374ZM138.124 142.528L151.612 144.591L150.437 152.251L136.949 150.187L138.124 142.528ZM152.184 144.651L165.741 146.715L164.566 154.374L151.04 152.333L152.184 144.651ZM166.275 146.805L179.764 148.869L178.589 156.528L165.101 154.465L166.275 146.805ZM180.366 148.959L193.855 151.03L192.68 158.682L179.191 156.619L180.366 148.959ZM194.457 151.121L207.946 153.184L206.771 160.844L193.282 158.78L194.457 151.121ZM208.548 153.275L222.067 155.346L220.892 163.005L207.404 160.942L208.548 153.275ZM208.639 152.672L209.814 145.02L223.332 147.061L222.157 154.721L208.639 152.672ZM223.905 147.174L237.393 149.238L236.218 156.897L222.73 154.834L223.905 147.174ZM238.041 149.321L251.529 151.384L250.354 159.044L236.866 156.98L238.041 149.321ZM238.131 148.726L239.298 141.067L252.794 143.13L251.597 150.827L238.131 148.726ZM239.396 140.442L240.564 132.782L254.06 134.846L252.87 142.543L239.396 140.442ZM240.654 132.157L241.806 124.558L255.295 126.622L254.135 134.258L240.654 132.157ZM240.059 132.059L226.563 129.996L227.738 122.336L241.211 124.468L240.059 132.059ZM227.828 121.741L229.003 114.142L242.477 116.183L241.309 123.843L227.828 121.741ZM227.233 121.643L213.737 119.58L214.912 111.921L228.401 113.992L227.233 121.643ZM213.142 119.49L199.631 117.486L200.806 109.827L214.295 111.891L213.142 119.49ZM199.051 117.336L185.555 115.272L186.73 107.613L200.219 109.676L199.051 117.336ZM184.96 115.174L171.449 113.171L172.624 105.512L186.113 107.575L184.96 115.174ZM170.869 113.02L157.373 110.957L158.533 103.38L172.022 105.444L170.869 113.02ZM156.763 110.911L143.267 108.84L144.442 101.189L157.931 103.252L156.763 110.911ZM142.672 108.75L129.176 106.686L130.344 99.0422L143.84 101.121L142.672 108.75ZM128.581 106.596L115.085 104.532L116.26 96.8732L129.749 98.9368L128.581 106.596ZM114.528 104.45L100.972 102.386L102.147 94.7268L115.635 96.7979L114.528 104.45ZM114.43 105.052L113.263 112.711L99.7744 110.648L100.942 102.989L114.43 105.052ZM99.1719 110.557L85.6834 108.486L86.8508 100.835L100.339 102.898L99.1719 110.557ZM85.0809 108.396L71.5925 106.332L72.7598 98.6732L86.2558 100.737L85.0809 108.396ZM84.9906 108.999L83.8157 116.658L70.3272 114.594L71.4945 106.935L84.9906 108.999ZM83.7253 117.283L82.5504 124.942L69.0619 122.879L70.2368 115.219L83.7253 117.283ZM82.4601 125.567L81.2852 133.227L67.7967 131.163L68.9716 123.504L82.4601 125.567ZM81.1948 133.852L80.0275 141.503L66.5314 139.44L67.7063 131.781L81.1948 133.852ZM81.7973 133.942L95.2858 136.006L94.1184 143.665L80.6224 141.601L81.7973 133.942ZM95.8883 136.096L109.377 138.16L108.202 145.819L94.7134 143.755L95.8883 136.096ZM108.112 146.421L106.944 154.081L93.4406 151.942L94.6155 144.282L108.112 146.421ZM108.714 146.512L122.202 148.575L121.035 156.235L107.539 154.171L108.714 146.512ZM122.767 148.568L136.256 150.639L135.088 158.291L121.592 156.227L122.767 148.568ZM136.858 150.729L150.347 152.793L149.172 160.475L135.676 158.411L136.858 150.729ZM150.949 152.883L164.438 154.947L163.27 162.606L149.774 160.542L150.949 152.883ZM165.04 155.045L178.544 157.131L177.376 164.79L163.88 162.719L165.04 155.045ZM179.131 157.199L192.62 159.262L191.452 166.921L177.956 164.858L179.131 157.199ZM193.222 159.352L206.711 161.416L205.543 169.075L192.047 167.012L193.222 159.352ZM207.313 161.514L220.802 163.63L219.634 171.29L206.138 169.226L207.313 161.514ZM221.404 163.668L234.893 165.731L233.725 173.421L220.229 171.357L221.404 163.668ZM221.495 163.065L222.669 155.406L236.158 157.477L234.983 165.136L221.495 163.065ZM236.76 157.605L250.249 159.669L249.074 167.328L235.586 165.265L236.76 157.605ZM250.844 159.744L264.332 161.808L263.157 169.467L249.677 167.396L250.844 159.744ZM250.934 159.149L252.109 151.49L265.598 153.553L264.4 161.213L250.934 159.149ZM252.199 150.865L253.367 143.205L266.863 145.269L265.688 152.928L252.199 150.865ZM253.465 142.58L254.609 135.011L268.166 137.037L266.998 144.697L253.465 142.58ZM254.722 134.296L255.905 126.727L269.393 128.791L268.226 136.45L254.722 134.296ZM255.988 126.012L257.17 118.443L270.659 120.506L269.491 128.166L255.988 126.012ZM255.393 125.921L241.897 123.858L243.072 116.198L256.56 118.262L255.393 125.921ZM243.162 115.596L244.337 107.944L257.825 110.008L256.65 117.667L243.162 115.596ZM242.559 115.506L229.071 113.442L230.246 105.783L243.734 107.846L242.559 115.506ZM228.469 113.352L214.98 111.288L216.2 103.727L229.689 105.79L228.469 113.352ZM214.378 111.198L200.889 109.127L202.064 101.475L215.552 103.538L214.378 111.198ZM200.287 109.036L186.828 107.07L188.003 99.4112L201.492 101.475L200.287 109.036ZM186.196 106.882L172.715 104.886L173.89 97.2272L187.378 99.2907L186.196 106.882ZM172.105 104.721L158.616 102.657L159.799 95.0958L173.272 97.1669L172.105 104.721ZM158.021 102.567L144.525 100.503L145.7 92.844L159.188 94.9075L158.021 102.567ZM143.93 100.413L130.434 98.3418L131.609 90.69L145.105 92.8364L143.93 100.413ZM129.832 98.2514L116.343 96.1878L117.541 88.6265L131.029 90.69L129.832 98.2514ZM115.748 96.0975L102.252 94.0339L103.427 86.3746L116.916 88.4382L115.748 96.0975ZM101.657 93.9435L88.1687 91.9703L89.3436 84.3186L102.832 86.3821L101.657 93.9435ZM101.559 94.5385L100.392 102.198L86.896 100.134L88.0708 92.4749L101.559 94.5385ZM86.301 100.044L72.8125 98.1083L73.9874 90.449L87.4759 92.5126L86.301 100.044ZM66.4034 139.967L79.8844 142.031L78.717 149.69L65.221 147.626L66.4034 139.967ZM80.4944 142.121L93.9829 144.185L92.8155 151.844L79.3195 149.78L80.4944 142.121ZM92.6875 152.446L91.5201 160.106L78.0317 158.042L79.199 150.383L92.6875 152.446ZM93.29 152.537L106.809 154.593L105.641 162.252L92.1528 160.188L93.29 152.537ZM107.381 154.698L120.869 156.762L119.702 164.421L106.244 162.35L107.381 154.698ZM121.502 156.852L134.991 158.916L133.823 166.575L120.327 164.511L121.502 156.852ZM135.616 159.006L149.104 161.077L147.937 168.729L134.426 166.643L135.616 159.006ZM149.707 161.168L163.195 163.231L161.975 170.89L148.487 168.827L149.707 161.168ZM163.798 163.321L177.286 165.385L176.119 173.044L162.623 170.981L163.798 163.321ZM177.889 165.475L191.347 167.546L190.18 175.198L176.684 173.135L177.889 165.475ZM191.98 167.637L205.468 169.7L204.301 177.36L190.805 175.296L191.98 167.637ZM206.071 169.791L219.559 171.854L218.392 179.514L204.903 177.45L206.071 169.791ZM220.162 171.952L233.65 174.016L232.46 181.705L218.964 179.634L220.162 171.952ZM234.253 174.106L247.741 176.17L246.574 183.829L233.078 181.765L234.253 174.106ZM234.343 173.504L235.518 165.844L249.006 167.916L247.831 175.567L234.343 173.504ZM249.609 168.006L263.097 170.069L261.93 177.729L248.411 175.68L249.609 168.006ZM271.736 113.623L270.749 119.949L257.26 117.885L258.435 110.226L270.561 112.079C270.916 112.135 271.236 112.327 271.451 112.616C271.667 112.905 271.761 113.266 271.713 113.623H271.736ZM76.6761 82.368L88.8014 84.2207L87.634 91.88L74.0778 89.8239L75.0418 83.5278C75.0684 83.348 75.1304 83.1753 75.224 83.0196C75.3177 82.8639 75.4412 82.7282 75.5875 82.6205C75.7338 82.5127 75.9 82.4349 76.0764 82.3915C76.2529 82.3482 76.4362 82.3402 76.6158 82.368H76.6761ZM64.2344 154.517L65.1984 148.221L78.6869 150.292L77.5195 157.944L65.3264 156.099C64.9642 156.042 64.6394 155.843 64.4234 155.546C64.2075 155.25 64.1178 154.88 64.1742 154.517H64.2344ZM259.279 185.78L247.146 183.919L248.321 176.26L261.809 178.324L260.845 184.627C260.79 184.988 260.594 185.311 260.3 185.527C260.006 185.743 259.639 185.834 259.279 185.78V185.78Z" fill="white"/>
</g>
<path opacity="0.5" d="M264.25 162.41L260.846 184.612C260.82 184.784 260.76 184.949 260.671 185.098C260.581 185.247 260.463 185.376 260.323 185.479C260.183 185.582 260.024 185.656 259.855 185.698C259.686 185.739 259.511 185.746 259.339 185.72L65.2814 156.016C65.1103 155.99 64.946 155.93 64.7981 155.84C64.6502 155.749 64.5215 155.631 64.4194 155.491C64.3173 155.351 64.2438 155.193 64.203 155.024C64.1622 154.856 64.155 154.681 64.1818 154.51L64.6337 151.543C64.6337 151.543 73.7541 144.192 79.4627 145.066C86.2032 146.098 87.4158 149.924 93.4408 150.827C99.4658 151.731 106.063 137.798 111.516 138.627C114.46 139.079 115.214 141.345 116.652 143.424C117.269 144.38 118.088 145.189 119.051 145.795C120.013 146.401 121.097 146.79 122.225 146.934L122.451 146.971C129.832 148.101 139.818 108.923 149.97 110.475C154.489 111.16 156.274 119.806 157.622 129.356C159.332 141.406 160.296 154.962 165.003 155.647C173.423 156.935 176.3 139.832 184.117 141.059C189.035 141.812 190.827 150.925 194.97 158.148C197.417 162.418 200.693 166.033 205.935 166.831C210.702 167.584 213.888 166.455 216.366 164.715C221.224 161.318 223.393 155.519 229.463 156.431C233.063 156.98 234.373 159.752 235.714 162.365C236.881 164.625 238.071 166.809 240.843 167.23C244.104 167.735 246.868 163.066 249.827 158.946C252.245 155.542 254.768 152.484 257.765 152.921C260.763 153.358 262.645 157.071 263.557 159.699C263.841 160.588 264.072 161.494 264.25 162.41V162.41Z" fill="white"/>
<path opacity="0.5" d="M268.919 131.901L260.845 184.62C260.82 184.792 260.76 184.957 260.671 185.106C260.581 185.254 260.463 185.384 260.323 185.487C260.183 185.59 260.024 185.664 259.855 185.705C259.686 185.746 259.511 185.754 259.339 185.727L65.2814 156.016C65.1103 155.99 64.946 155.93 64.7981 155.839C64.6502 155.749 64.5215 155.631 64.4194 155.491C64.3173 155.351 64.2438 155.193 64.203 155.024C64.1622 154.856 64.155 154.681 64.1818 154.51L64.6337 151.543C72.6921 152.778 76.9925 146.745 82.3999 147.574C87.8074 148.402 90.609 152.175 95.67 152.951C100.731 153.727 108.541 141.88 114.076 142.731C114.944 142.857 115.792 143.095 116.599 143.439C118.731 144.328 120.199 145.759 122.172 146.949C123.725 147.89 125.452 148.51 127.249 148.771C133.733 149.758 146.709 126.29 154.233 127.443C155.535 127.678 156.715 128.36 157.569 129.371C162.013 134.213 163.158 146.324 169.424 147.28C177.023 148.447 181.09 136.089 188.463 137.211C195.836 138.333 198.005 151.046 206.538 152.349C215.071 153.651 224.326 130.335 233.191 131.69C242.055 133.046 244.586 145.028 252.29 146.203C260.748 147.498 268.919 131.901 268.919 131.901Z" fill="white"/>
<path d="M265.153 156.408L260.83 184.612C260.805 184.784 260.745 184.949 260.656 185.098C260.566 185.246 260.448 185.376 260.308 185.479C260.168 185.582 260.009 185.656 259.84 185.697C259.671 185.738 259.496 185.746 259.324 185.719L65.2814 156.016C65.1103 155.989 64.946 155.929 64.7981 155.839C64.6502 155.749 64.5215 155.631 64.4194 155.491C64.3173 155.351 64.2438 155.192 64.203 155.024C64.1622 154.855 64.155 154.681 64.1818 154.51L64.4002 153.056C64.6789 152.793 69.2504 148.477 73.8896 149.185C78.687 149.938 78.7021 154.216 85.3898 155.21C92.0776 156.204 94.0282 150.94 103.518 152.393C113.007 153.847 112.977 160.482 122.79 161.988C132.603 163.494 134.629 155.534 141.618 156.603C148.607 157.673 148.118 161.732 152.079 162.335C156.041 162.937 158.345 156.731 163.218 157.477C168.091 158.223 171.819 168.435 177.309 169.278C181.165 169.866 187.981 162.229 194.939 158.132C197.877 156.4 200.852 155.3 203.623 155.73C209.354 156.603 212.698 161.077 216.336 164.699C218.595 166.959 221.028 168.917 224.206 169.406C228.725 170.099 232.197 165.987 235.684 162.372C238.515 159.428 241.37 156.807 244.842 157.334C246.578 157.555 248.258 158.096 249.797 158.93C252.81 160.617 253.6 162.892 257.2 163.449C261.531 164.135 265.153 156.408 265.153 156.408Z" fill="white"/>
<path d="M88.207 79.476L77.7838 77.8794C77.5428 77.8427 77.3114 77.7587 77.1029 77.6324C76.8945 77.5061 76.713 77.3399 76.5688 77.1433C76.4247 76.9467 76.3208 76.7236 76.2631 76.4867C76.2053 76.2499 76.1949 76.004 76.2323 75.7631C76.3066 75.2759 76.5712 74.8381 76.968 74.5459C77.3648 74.2536 77.8613 74.1307 78.3486 74.2041L88.7643 75.8008C89.2506 75.8769 89.6872 76.142 89.9791 76.5383C90.2711 76.9345 90.3947 77.4301 90.3233 77.9171V77.9171C90.2472 78.4033 89.9821 78.8399 89.5858 79.1318C89.1895 79.4237 88.694 79.5474 88.207 79.476Z" fill="white"/>
<path d="M93.9609 77.3746H94.1265L104.55 78.9712C104.698 78.9902 104.841 79.0386 104.97 79.1136C105.1 79.1886 105.213 79.2887 105.303 79.408C105.474 79.6454 105.547 79.9393 105.506 80.2289C105.464 80.4891 105.331 80.7261 105.131 80.8982C104.932 81.0704 104.678 81.1667 104.414 81.1703H104.241L93.8253 79.5737C93.6763 79.5573 93.5323 79.51 93.4026 79.4348C93.2729 79.3596 93.1604 79.2581 93.0722 79.1369C92.9505 78.9729 92.8769 78.7783 92.8596 78.5748C92.8423 78.3713 92.882 78.1671 92.9742 77.9849C93.0665 77.8027 93.2077 77.6498 93.3819 77.5434C93.5562 77.4369 93.7567 77.3811 93.9609 77.3821V77.3746ZM93.9609 76.629C93.4856 76.6168 93.0237 76.7877 92.671 77.1065C92.3182 77.4253 92.1015 77.8675 92.0657 78.3416C92.0299 78.8157 92.1777 79.2854 92.4786 79.6536C92.7795 80.0217 93.2104 80.26 93.6822 80.3193L104.098 81.9159C104.193 81.9234 104.289 81.9234 104.384 81.9159C104.852 81.9134 105.301 81.735 105.643 81.4162C105.984 81.0974 106.194 80.6616 106.229 80.1955C106.264 79.7295 106.122 79.2672 105.832 78.9008C105.542 78.5344 105.124 78.2907 104.663 78.2181L94.2395 76.629C94.1468 76.6216 94.0536 76.6216 93.9609 76.629V76.629Z" fill="white"/>
<path d="M109.851 79.8071H110.009L120.425 81.4037C120.698 81.449 120.944 81.5948 121.114 81.8123C121.285 82.0298 121.368 82.3033 121.347 82.579C121.327 82.8548 121.203 83.1128 121.002 83.3022C120.801 83.4917 120.536 83.599 120.259 83.6029H120.093L109.67 82.0062C109.522 81.9877 109.379 81.9394 109.249 81.8644C109.12 81.7894 109.007 81.689 108.917 81.5694C108.832 81.4524 108.77 81.3196 108.737 81.1786C108.703 81.0377 108.698 80.8915 108.721 80.7485C108.762 80.4897 108.894 80.2538 109.092 80.0828C109.291 79.9118 109.544 79.8168 109.806 79.8146L109.851 79.8071ZM109.806 79.0615C109.33 79.0493 108.869 79.2202 108.516 79.539C108.163 79.8578 107.946 80.3 107.911 80.7741C107.875 81.2482 108.023 81.7179 108.324 82.0861C108.624 82.4542 109.055 82.6926 109.527 82.7518L119.95 84.3484C120.043 84.3559 120.136 84.3559 120.229 84.3484C120.696 84.3459 121.146 84.1675 121.488 83.8487C121.829 83.5299 122.039 83.0941 122.074 82.628C122.109 82.162 121.967 81.6997 121.677 81.3333C121.387 80.9669 120.969 80.7232 120.508 80.6506L110.092 79.0615C109.997 79.054 109.901 79.054 109.806 79.0615V79.0615Z" fill="white"/>
<path d="M272.128 105.948L272.256 105.135L271.653 104.991C271.639 104.857 271.606 104.725 271.555 104.6L272.022 104.193L271.54 103.53L271.006 103.854C270.901 103.771 270.787 103.7 270.667 103.643L270.704 103.026L269.891 102.905L269.748 103.508C269.617 103.522 269.487 103.552 269.364 103.598L268.949 103.131L268.287 103.621L268.611 104.148C268.527 104.253 268.459 104.37 268.407 104.494L267.79 104.449L267.662 105.263L268.264 105.413C268.278 105.545 268.311 105.675 268.362 105.797L267.895 106.204L268.385 106.867L268.912 106.543C269.017 106.625 269.131 106.695 269.251 106.754L269.213 107.371L270.026 107.492L270.17 106.897C270.303 106.876 270.434 106.843 270.561 106.799L270.968 107.266L271.631 106.776L271.307 106.249C271.389 106.145 271.457 106.031 271.51 105.91L272.128 105.948ZM269.816 106.144C269.629 106.115 269.455 106.031 269.315 105.903C269.176 105.775 269.078 105.608 269.033 105.425C268.988 105.241 268.999 105.048 269.064 104.87C269.129 104.693 269.245 104.538 269.398 104.426C269.551 104.315 269.733 104.251 269.922 104.243C270.111 104.235 270.298 104.283 270.46 104.382C270.621 104.48 270.75 104.624 270.83 104.796C270.91 104.967 270.937 105.158 270.908 105.345C270.888 105.47 270.845 105.589 270.779 105.696C270.714 105.803 270.628 105.897 270.527 105.971C270.426 106.045 270.311 106.098 270.188 106.128C270.066 106.158 269.94 106.163 269.816 106.144V106.144Z" fill="white"/>
<path opacity="0.2" d="M154.991 195.568L152.773 195.229L150.335 211.16L152.554 211.5L154.991 195.568Z" fill="white"/>
<path d="M154.626 197.962L152.407 197.622L151.26 205.119L153.478 205.458L154.626 197.962Z" fill="white"/>
<path opacity="0.2" d="M149.397 198.818L147.179 198.478L144.741 214.41L146.959 214.749L149.397 198.818Z" fill="white"/>
<path d="M146.516 202.675L145.368 210.179L147.587 210.518L148.735 203.014L146.516 202.675Z" fill="white"/>
<path opacity="0.2" d="M145.389 195.102L143.167 194.765L140.749 210.721L142.971 211.057L145.389 195.102Z" fill="white"/>
<path d="M143.948 200.996L141.73 200.657L140.582 208.161L142.8 208.5L143.948 200.996Z" fill="white"/>
<path opacity="0.2" d="M159.499 199.473L157.281 199.133L154.843 215.065L157.062 215.404L159.499 199.473Z" fill="white"/>
<path d="M159.141 201.867L156.923 201.527L155.775 209.031L157.993 209.371L159.141 201.867Z" fill="white"/>
<path opacity="0.2" d="M165.205 195.524L162.987 195.184L160.549 211.116L162.767 211.455L165.205 195.524Z" fill="white"/>
<path d="M164.929 197.321L162.711 196.981L161.562 204.485L163.781 204.825L164.929 197.321Z" fill="white"/>
<path opacity="0.2" d="M169.569 200.398L167.351 200.058L164.913 215.99L167.131 216.329L169.569 200.398Z" fill="white"/>
<path d="M169.472 201.001L167.254 200.661L166.105 208.165L168.324 208.505L169.472 201.001Z" fill="white"/>
<path opacity="0.2" d="M175.823 192.831L173.605 192.492L171.167 208.423L173.386 208.763L175.823 192.831Z" fill="white"/>
<path d="M175.74 193.435L173.521 193.095L172.374 200.592L174.593 200.931L175.74 193.435Z" fill="white"/>
<path opacity="0.2" d="M179.279 203.629L177.06 203.29L174.622 219.221L176.841 219.561L179.279 203.629Z" fill="white"/>
<path d="M178.913 206.03L176.694 205.691L175.546 213.195L177.764 213.535L178.913 206.03Z" fill="white"/>
<path opacity="0.2" d="M184.125 205.322L181.907 204.983L179.469 220.914L181.688 221.254L184.125 205.322Z" fill="white"/>
<path d="M183.206 211.326L180.988 210.986L179.84 218.49L182.058 218.83L183.206 211.326Z" fill="white"/>
<path opacity="0.2" d="M190.653 196.073L188.434 195.734L185.996 211.665L188.215 212.005L190.653 196.073Z" fill="white"/>
<path d="M189.636 202.683L187.418 202.343L186.27 209.84L188.489 210.179L189.636 202.683Z" fill="white"/>
<path opacity="0.2" d="M194.56 203.852L192.342 203.512L189.904 219.444L192.123 219.783L194.56 203.852Z" fill="white"/>
<path d="M194.097 206.857L191.879 206.518L190.731 214.015L192.95 214.354L194.097 206.857Z" fill="white"/>
<path opacity="0.2" d="M200.183 200.457L197.965 200.117L195.527 216.049L197.745 216.388L200.183 200.457Z" fill="white"/>
<path d="M200.433 202.902L198.211 202.565L197.072 210.081L199.294 210.418L200.433 202.902Z" fill="white"/>
<path opacity="0.2" d="M206.27 194.062L204.051 193.723L201.613 209.654L203.832 209.994L206.27 194.062Z" fill="white"/>
<path d="M206.262 194.068L204.044 193.728L202.895 201.233L205.114 201.572L206.262 194.068Z" fill="white"/>
<path opacity="0.2" d="M209.716 204.919L207.498 204.579L205.06 220.511L207.278 220.85L209.716 204.919Z" fill="white"/>
<path d="M209.433 206.724L207.214 206.384L206.066 213.888L208.285 214.228L209.433 206.724Z" fill="white"/>
<path opacity="0.2" d="M213.626 212.689L211.407 212.35L208.969 228.281L211.188 228.621L213.626 212.689Z" fill="white"/>
<path d="M213.35 214.486L211.131 214.147L209.983 221.651L212.201 221.991L213.35 214.486Z" fill="white"/>
<path opacity="0.2" d="M219.902 205.021L217.684 204.681L215.246 220.612L217.465 220.952L219.902 205.021Z" fill="white"/>
<path d="M218.991 211.01L216.772 210.671L215.624 218.175L217.842 218.514L218.991 211.01Z" fill="white"/>
<path opacity="0.2" d="M226.273 196.778L224.054 196.439L221.616 212.37L223.835 212.71L226.273 196.778Z" fill="white"/>
<path d="M225.166 203.976L222.948 203.636L221.799 211.14L224.018 211.48L225.166 203.976Z" fill="white"/>
<path opacity="0.2" d="M229.883 206.543L227.664 206.203L225.226 222.135L227.445 222.474L229.883 206.543Z" fill="white"/>
<path d="M230.191 208.953L227.969 208.616L226.831 216.132L229.053 216.468L230.191 208.953Z" fill="white"/>
<path opacity="0.2" d="M234.457 209.96L232.238 209.621L229.8 225.552L232.019 225.892L234.457 209.96Z" fill="white"/>
<path d="M233.455 216.562L231.236 216.222L230.088 223.726L232.306 224.066L233.455 216.562Z" fill="white"/>
<path opacity="0.2" d="M240.209 205.749L237.99 205.409L235.552 221.341L237.771 221.68L240.209 205.749Z" fill="white"/>
<path d="M240.208 205.756L237.99 205.417L236.842 212.921L239.06 213.26L240.208 205.756Z" fill="white"/>
<path opacity="0.2" d="M244.437 211.482L242.218 211.143L239.781 227.074L241.999 227.414L244.437 211.482Z" fill="white"/>
<path d="M244.25 212.682L242.031 212.342L240.883 219.846L243.102 220.186L244.25 212.682Z" fill="white"/>
<path opacity="0.2" d="M249.76 210.095L247.541 209.756L245.103 225.687L247.322 226.027L249.76 210.095Z" fill="white"/>
<path d="M249.662 210.699L247.444 210.359L246.295 217.863L248.514 218.203L249.662 210.699Z" fill="white"/>
<path opacity="0.2" d="M254.424 212.908L252.206 212.569L249.768 228.5L251.987 228.84L254.424 212.908Z" fill="white"/>
<path d="M253.961 220.707L251.739 220.37L250.6 227.886L252.822 228.222L253.961 220.707Z" fill="white"/>
<path d="M173.875 235.035L132.096 228.642L131.898 229.937L173.677 236.331L173.875 235.035Z" fill="#999999" stroke="#263238" stroke-linecap="round" stroke-linejoin="round"/>
<path opacity="0.2" d="M200.429 143.958C200.429 143.958 194.765 147.099 198.373 155.609C201.98 164.12 223.919 178.113 223.474 185.222C223.474 185.222 200.949 171.184 194.69 179.287C194.69 179.287 211.703 195.788 213.473 208.2C215.243 220.611 221.004 226.117 234.319 233.196C247.635 240.276 276.585 277.631 276.585 277.631L272.254 214.895L230.079 167.298L209.233 155.413L200.429 143.958Z" fill="black" fill-opacity="0.7"/>
<path d="M314.859 255.812L277.73 280.199H277.669C277.635 280.197 277.602 280.185 277.574 280.165C277.546 280.145 277.524 280.117 277.511 280.086C277.345 279.649 260.942 235.809 256.988 232.39C254.762 230.378 253.14 227.786 252.304 224.904C252.304 224.904 252.304 224.866 252.304 224.844C252.161 224.362 252.093 224.045 252.078 223.963C249.894 219.521 246.544 215.757 242.385 213.072C239.606 211.388 236.67 209.976 233.619 208.855C228.95 206.965 224.145 205.014 220.748 201.406C220.166 200.79 219.635 200.128 219.159 199.426C213.759 191.518 205.422 182.789 202.643 180.997C199.864 179.204 194.75 179.445 194.705 179.445C194.663 179.45 194.621 179.438 194.588 179.413C194.554 179.388 194.532 179.351 194.524 179.31C194.434 178.62 194.496 177.92 194.707 177.257C194.918 176.595 195.272 175.987 195.744 175.476C196.454 174.647 197.335 173.981 198.328 173.526C199.32 173.071 200.399 172.837 201.491 172.84C205.783 172.84 211.696 175.1 214.678 177.939C217.66 180.778 224.559 182.865 225.35 183.106C226.472 182.443 229.115 183.859 230.087 184.469C228.935 180.364 229.401 178.783 229.582 178.383C227.112 175.183 214.249 165.708 207.418 160.956C205.535 159.638 204.119 158.697 203.502 158.328C200.316 156.452 197.68 150.586 198.192 146.489C198.217 145.932 198.365 145.388 198.625 144.896C198.886 144.404 199.252 143.975 199.698 143.642C200.339 143.239 201.089 143.047 201.845 143.092C202.151 143.1 202.457 143.138 202.756 143.205C202.786 143.218 202.814 143.236 202.839 143.258C202.899 143.341 209.293 150.924 211.507 152.114C212.592 152.694 218.361 155.609 223.843 158.32L226.314 159.54C226.299 157.153 226.424 154.766 226.69 152.393C226.901 151.459 228.392 150.134 230.087 149.381C230.878 149.019 232.346 148.499 233.423 149.072C233.837 149.305 234.816 149.908 236.172 150.751L238.431 152.152C238.912 151.413 239.501 150.75 240.179 150.186C240.744 149.855 243.869 149.275 244.984 149.667C245.955 150.021 249.073 152.001 252.372 154.095L253.795 154.991C253.968 154.668 254.375 153.99 254.759 153.839C256.388 153.238 258.16 153.143 259.843 153.568C260.957 153.975 264.783 156.799 268.489 159.533C270.522 161.039 272.473 162.477 273.761 163.344C273.804 163.355 273.841 163.382 273.866 163.419C274.235 163.667 274.544 163.863 274.777 163.999C277.504 165.558 284.206 200.714 284.274 201.068C284.711 203.425 286.308 205.857 287.995 208.433C289.904 211.115 291.465 214.027 292.641 217.102C294.788 223.375 299.676 232.556 306.838 243.777C307.486 244.782 308.153 245.813 308.841 246.873C310.777 249.802 312.84 252.86 314.859 255.812Z" fill="#A99797"/>
<path opacity="0.4" d="M232.12 188.483C230.682 189.62 220.244 188.543 218.963 192.053C218.21 194.124 218.767 197.257 220.725 201.391C220.144 200.775 219.612 200.112 219.136 199.411C213.736 191.503 205.399 182.774 202.62 180.982C199.841 179.189 194.75 179.445 194.705 179.445C194.663 179.45 194.621 179.438 194.588 179.413C194.554 179.388 194.532 179.351 194.524 179.31C194.434 178.62 194.496 177.92 194.707 177.257C194.918 176.595 195.272 175.987 195.744 175.476C196.454 174.647 197.335 173.981 198.328 173.526C199.32 173.071 200.399 172.837 201.491 172.84C205.783 172.84 211.696 175.1 214.678 177.939C217.66 180.778 224.559 182.865 225.35 183.106C226.472 182.443 229.115 183.859 230.087 184.469C228.935 180.364 229.401 178.783 229.582 178.383C227.112 175.183 214.249 165.708 207.418 160.956C205.535 159.638 204.119 158.697 203.502 158.328C200.316 156.452 197.68 150.586 198.192 146.489C198.217 145.932 198.365 145.388 198.625 144.896C198.886 144.404 199.252 143.975 199.698 143.642C200.339 143.239 201.089 143.047 201.845 143.092C201.327 143.294 200.848 143.585 200.429 143.951C198.335 145.735 203.328 155.157 206.137 157.763C209.075 160.482 222.284 167.23 227.029 171.251C229.635 173.458 233.054 176.802 233.054 176.802C230.968 180.357 233.521 187.368 232.12 188.483Z" fill="white"/>
<path d="M280.622 130.893C280.622 130.824 280.622 130.808 280.622 130.839C280.627 130.847 280.63 130.856 280.63 130.866C280.63 130.876 280.627 130.885 280.622 130.893Z" fill="white"/>
<path opacity="0.4" d="M306.838 243.74C301.242 238.416 292.912 230.124 291.353 226.486C288.974 220.913 287.384 215.769 284.425 212.019C281.465 208.268 275.462 168.3 273.738 168.187C272.013 168.074 275.907 184.002 276.11 184.816C275.944 184.311 273.79 177.525 271.727 169.791C269.588 161.755 267.427 161.318 267.427 161.318C264.557 161.89 264.542 163.931 263.074 163.901C261.605 163.871 256.567 160.294 256.567 160.294C251.679 161.002 233.34 149.193 233.34 149.193C229.168 149.758 228.189 153.403 231.751 156.822C235.313 160.241 240.638 164.383 240.638 164.383C237.204 166.055 224.596 158.983 224.596 158.983L223.843 158.306L226.313 159.526C226.298 157.138 226.424 154.751 226.69 152.379C226.901 151.445 228.392 150.119 230.087 149.366C230.877 149.005 232.346 148.485 233.423 149.057C233.837 149.291 234.816 149.893 236.172 150.737L238.431 152.138C238.912 151.398 239.501 150.736 240.178 150.172C240.743 149.84 243.869 149.261 244.983 149.652C245.955 150.006 249.073 151.987 252.372 154.081L253.795 154.977C253.968 154.653 254.375 153.975 254.759 153.825C256.387 153.223 258.16 153.129 259.843 153.553C260.957 153.96 264.783 156.784 268.488 159.518C270.522 161.024 272.473 162.463 273.76 163.329C273.804 163.34 273.841 163.367 273.866 163.404C274.235 163.653 274.544 163.849 274.777 163.984C277.503 165.543 284.206 200.699 284.274 201.053C284.711 203.41 286.307 205.843 287.994 208.419C289.905 211.105 291.466 214.023 292.641 217.102C294.788 223.338 299.675 232.519 306.838 243.74Z" fill="white"/>
<path d="M277.669 280.048C277.669 280.048 261.101 235.764 257.101 232.285C254.64 230.06 252.934 227.121 252.221 223.88C250.022 219.395 246.636 215.597 242.431 212.9C235.283 208.193 224.476 206.972 219.249 199.343C214.023 191.714 205.648 182.775 202.681 180.862C199.713 178.949 194.66 179.295 194.66 179.295C194.14 176.328 197.446 173.022 201.438 173.022C205.429 173.022 211.372 175.108 214.512 178.075C217.653 181.042 225.32 183.302 225.32 183.302C226.54 182.428 230.313 184.853 230.313 184.853C228.807 179.754 229.718 178.376 229.718 178.376C226.758 174.37 206.491 159.947 203.532 158.2C200.572 156.453 197.778 150.706 198.297 146.519C198.31 145.999 198.443 145.489 198.687 145.029C198.93 144.569 199.276 144.172 199.699 143.868C200.121 143.565 200.608 143.363 201.122 143.279C201.635 143.196 202.161 143.232 202.658 143.386C202.658 143.386 209.105 151.053 211.372 152.273C213.639 153.493 231.42 162.387 234.033 163.427C234.759 163.736 235.548 163.866 236.335 163.806C237.122 163.746 237.882 163.497 238.552 163.08" stroke="#263238" stroke-linecap="round" stroke-linejoin="round"/>
<path d="M226.479 159.812C226.479 159.812 226.479 154.013 226.856 152.439C227.232 150.865 231.427 148.153 233.34 149.193C235.253 150.232 249.382 159.525 253.065 159.94" stroke="#263238" stroke-linecap="round" stroke-linejoin="round"/>
<path d="M238.484 152.333C238.984 151.569 239.587 150.877 240.276 150.277C240.796 149.968 243.891 149.396 244.938 149.772C247.032 150.526 259.368 159.036 261.454 159.563" stroke="#263238" stroke-linecap="round" stroke-linejoin="round"/>
<path d="M253.856 155.21C253.856 155.21 254.391 154.141 254.82 153.968C256.409 153.378 258.14 153.286 259.783 153.704C261.704 154.404 272.247 162.741 274.687 164.12C277.128 165.498 283.235 196.369 284.101 201.076C284.968 205.783 290.209 210.49 292.469 217.117C294.728 223.745 300.143 233.852 308.683 246.926C310.19 249.185 311.756 251.573 313.33 253.877" stroke="#263238" stroke-linecap="round" stroke-linejoin="round"/>
<path d="M237.227 172.095C237.227 172.095 237.98 168.563 240.104 166.996C242.228 165.43 245.074 167.915 247.161 168.171" stroke="#263238" stroke-linecap="round" stroke-linejoin="round"/>
<path d="M251.476 166.477C251.476 166.477 252.651 162.417 254.744 161.506C256.838 160.595 260.061 163.336 261.455 163.464" stroke="#263238" stroke-linecap="round" stroke-linejoin="round"/>
<path d="M265.206 162.809C265.206 162.809 266.772 161.303 267.427 161.303C268.083 161.303 270.824 164.172 271.419 164.368C272.014 164.564 272.722 163.487 273.739 163.472" stroke="#263238" stroke-linecap="round" stroke-linejoin="round"/>
<path d="M260.438 159.111C261.583 159.026 262.725 159.309 263.699 159.917" stroke="#263238" stroke-linecap="round" stroke-linejoin="round"/>
<path d="M229.756 178.369C229.756 178.369 228.716 175.688 229.236 174.317" stroke="#263238" stroke-linecap="round" stroke-linejoin="round"/>
<path d="M231.797 158.697C231.797 158.697 233.04 160.15 233.107 161.318C233.175 162.485 236.12 163.901 236.12 163.901" stroke="#263238" stroke-linecap="round" stroke-linejoin="round"/>
<path d="M251.732 159.586C251.732 159.586 253.441 158.976 254.353 159.586" stroke="#263238" stroke-linecap="round" stroke-linejoin="round"/>
<path d="M229.755 181.901C229.697 181.039 229.851 180.177 230.205 179.389C230.558 178.601 231.099 177.912 231.781 177.382" stroke="#263238" stroke-linecap="round" stroke-linejoin="round"/>
<path d="M230.365 184.846C230.365 184.846 228.422 186.518 228.422 187.564" stroke="#263238" stroke-linecap="round" stroke-linejoin="round"/>
<path d="M221.418 181.901C223.723 182.759 225.636 186.344 227.029 186.954" stroke="#263238" stroke-linecap="round" stroke-linejoin="round"/>
<path d="M249.337 170.484C250.73 172.487 253.856 187.052 257.004 191.662" stroke="#263238" stroke-linecap="round" stroke-linejoin="round"/>
<path d="M261.026 166.371C261.289 166.545 263.119 172.208 263.119 172.208" stroke="#263238" stroke-linecap="round" stroke-linejoin="round"/>
<path d="M284.425 202.258C284.884 205.156 285.719 207.982 286.911 210.663" stroke="#263238" stroke-linecap="round" stroke-linejoin="round"/>
<path d="M252.455 224.867C252.221 223.91 251.212 217.637 249.969 215.543" stroke="#263238" stroke-linecap="round" stroke-linejoin="round"/>
<path opacity="0.2" d="M41.3912 322.758C41.3912 322.758 65.8979 289.809 84.3796 283.777C102.861 277.744 103.773 269.558 103.019 254.284C102.266 239.011 102.824 223.617 97.7476 221.779C92.6715 219.942 103.833 199.999 98.5007 192.099L63.5331 247.032L41.3912 322.758Z" fill="black" fill-opacity="0.7"/>
<path d="M35.4498 331.939L35.0808 331.818L35.608 332.112L35.4498 331.939ZM95.0221 230.862C92.0096 229.453 86.0297 222.848 85.2841 222.02C89.0498 215.679 92.7702 209.563 94.0581 208.095C96.7317 205.082 99.9927 196.293 98.6672 192.045C97.4547 188.144 93.4857 188.769 92.9434 188.875H92.8832C92.8628 188.878 92.8434 188.886 92.8264 188.897C92.8094 188.909 92.7954 188.925 92.7853 188.943C92.7024 189.086 84.6214 202.71 82.1135 205.971C80.916 207.522 78.1596 211.054 75.3354 214.594L74.4994 214.466C72.7477 214.193 70.9608 214.244 69.2275 214.617L69.0543 214.677C68.1578 215.064 67.294 215.522 66.4711 216.048L65.8761 215.799C64.6862 215.302 62.2234 214.346 61.0561 214.293C59.6327 214.217 54.6169 216.552 51.6194 218.435C49.553 217.807 47.3994 217.515 45.2405 217.569C42.9434 217.667 38.259 219.572 34.4934 221.101C32.8214 221.779 31.3754 222.366 30.5319 222.607L29.7788 222.833C27.5194 223.504 26.2994 223.88 24.7329 227.013C23.1061 230.267 21.3513 242.399 20.5078 248.229L20.3949 249.019C20.071 251.279 20.1237 255.24 20.1765 259.465C20.2593 265.34 20.3421 271.41 19.4685 273.775C18.2884 276.754 16.7291 279.569 14.8293 282.149C14.5807 282.503 14.3548 282.835 14.1439 283.151C12.9681 284.986 12.0293 286.962 11.3498 289.033C10.7172 290.705 9.92641 292.543 9.15822 294.222C7.74235 297.332 6.42438 299.901 6.42438 299.901C6.42438 299.901 33.1227 329.355 35.4498 331.939C35.5752 331.987 35.7035 332.027 35.8339 332.059C35.9243 331.908 40.8497 323.488 46.0689 315.182C50.5877 308.012 55.2796 300.925 57.2905 299.298C60.0479 296.932 62.0532 293.812 63.0594 290.321C64.1439 286.834 71.0651 282.533 77.7604 278.376C85.1636 273.782 92.8229 269.03 93.079 265.099C93.2221 263.065 93.689 259.699 94.2313 255.79C95.6999 245.201 97.5224 232.014 95.0221 230.862ZM82.3394 247.792L79.0483 250.993C78.5813 248.357 75.3806 244.855 74.876 244.32C75.129 243.053 75.2926 241.769 75.3655 240.479C75.486 239.01 75.614 237.466 75.9755 237.218C76.337 236.969 78.0014 234.205 80.7127 229.687C80.9386 232.872 83.7252 236.382 84.1017 236.887L82.3394 247.792Z" fill="#A99797"/>
<path opacity="0.4" d="M43.2596 238.009C42.2881 246.685 33.7853 268.209 33.7853 268.209L32.2791 246.527C32.2791 246.527 25.6591 275.951 23.8441 277.013C22.029 278.075 18.8433 283.701 17.0659 288.167C15.8685 291.18 11.794 293.228 9.22589 294.26C9.97902 292.58 10.7849 290.743 11.4175 289.071C12.0969 287 13.0358 285.024 14.2116 283.189C14.4225 282.873 14.6484 282.541 14.8969 282.187C16.7968 279.607 18.3561 276.792 19.5362 273.812C20.4098 271.433 20.2893 265.362 20.2441 259.503C20.1914 255.278 20.1387 251.286 20.4625 249.057L20.5755 248.266C21.419 242.437 23.1738 230.304 24.8005 227.051C26.367 223.918 27.6022 223.541 29.8465 222.871L30.5996 222.645C31.4431 222.381 32.859 221.794 34.561 221.139C38.3267 219.633 43.0111 217.705 45.3081 217.607C47.4553 217.562 49.5959 217.859 51.6495 218.488C54.662 216.597 59.6627 214.27 61.0861 214.346C62.2535 214.398 64.7162 215.355 65.9061 215.852C60.9054 218.428 52.493 224.633 52.493 224.633C42.981 226.697 43.2596 238.009 43.2596 238.009Z" fill="white"/>
<path opacity="0.4" d="M60.1138 226.486C62.5759 224.782 65.1277 223.21 67.758 221.779C70.1981 220.634 70.9814 216.07 69.2642 214.782C69.2001 214.735 69.125 214.704 69.0458 214.692L69.2191 214.632C70.9523 214.26 72.7392 214.208 74.4909 214.481C71.3353 219.218 68.8651 222.848 68.2099 223.632C66.0409 226.268 60.1138 226.486 60.1138 226.486Z" fill="white"/>
<path opacity="0.4" d="M72.5635 256.212L73.7158 256.709C73.0154 259.503 72.5635 256.212 72.5635 256.212Z" fill="white"/>
<path opacity="0.4" d="M95.0209 230.862C92.0084 229.453 86.0286 222.848 85.283 222.02C89.0486 215.679 92.7691 209.563 94.0569 208.095C96.7305 205.082 99.9915 196.293 98.666 192.046C97.4535 188.144 93.4845 188.769 92.9423 188.875V189.041C92.9423 189.041 97.2351 189.575 97.2276 195.781C97.22 201.987 86.0738 214.285 86.0738 214.285C86.0738 214.285 74.6112 235.787 73.8581 235.463C73.105 235.139 71.4255 249.833 71.4255 249.833C71.4255 249.833 74.6187 252.552 73.8581 256.212C73.8179 256.393 73.7803 256.558 73.7451 256.709L78.6555 258.825C78.6555 258.825 83.5809 255.368 86.0813 260.452C88.5817 265.536 62.0415 283.701 59.9554 286.39C59.9554 286.39 59.6617 296.519 55.7906 298.01C53.2827 298.974 48.8618 308.554 46.0677 315.189C50.5865 308.019 55.2785 300.932 57.2893 299.306C60.0467 296.94 62.052 293.82 63.0583 290.328C64.1428 286.842 71.064 282.541 77.7593 278.384C85.1625 273.79 92.8218 269.038 93.0778 265.106C93.2209 263.073 93.6879 259.706 94.2301 255.798C95.6987 245.201 97.5213 232.014 95.0209 230.862ZM82.3383 247.792L79.0471 250.993C78.5802 248.357 75.3794 244.855 74.8748 244.32C75.1278 243.053 75.2914 241.769 75.3643 240.479C75.4848 239.011 75.6129 237.467 75.9744 237.218C76.3359 236.97 78.0003 234.206 80.7115 229.687C80.9375 232.873 83.724 236.382 84.1006 236.887L82.3383 247.792Z" fill="white"/>
<path d="M62.9083 226.682C64.9606 226.242 66.8259 225.176 68.248 223.632C70.5074 221.094 79.6955 209.39 82.2411 206.084C84.7866 202.778 92.9204 189.041 92.9204 189.041C92.9204 189.041 97.2433 188.024 98.5161 192.099C99.7889 196.173 96.7387 204.811 93.9371 207.99C91.1355 211.168 76.8939 236.352 75.8621 237.113C74.8303 237.874 75.6136 245.006 73.6027 246.527" stroke="#263238" stroke-linecap="round" stroke-linejoin="round"/>
<path d="M74.6943 244.388C74.6943 244.388 78.6784 248.56 78.9344 251.354L82.4892 247.875L84.2741 236.856C84.2741 236.856 80.757 232.624 80.8624 229.144" stroke="#263238" stroke-linecap="round" stroke-linejoin="round"/>
<path d="M85.0874 222.043C85.0874 222.043 91.6472 229.483 94.9534 231.012C98.2596 232.541 93.4471 257.718 92.92 265.091C92.3928 272.464 65.1974 282.88 62.9079 290.268C61.9163 293.734 59.9254 296.83 57.1841 299.17C52.7708 302.748 35.6899 331.984 35.6899 331.984" stroke="#263238" stroke-linecap="round" stroke-linejoin="round"/>
<path d="M75.4325 214.783C75.4325 214.783 71.5539 214.067 69.2644 214.783C66.9749 215.498 57.2897 222.374 55.0303 223.632C52.771 224.89 49.4346 225.138 48.674 226.682" stroke="#263238" stroke-linecap="round" stroke-linejoin="round"/>
<path d="M66.4776 216.244C66.4776 216.244 62.5613 214.542 61.0551 214.466C59.5488 214.391 53.4259 217.276 50.6318 219.309C48.4835 220.884 46.0706 222.063 43.5073 222.788" stroke="#263238" stroke-linecap="round" stroke-linejoin="round"/>
<path d="M51.6267 218.608C49.5732 217.967 47.4288 217.664 45.2779 217.712C41.9641 217.855 33.3182 221.922 30.607 222.773C27.8957 223.624 26.6229 223.7 24.9284 227.096C23.2339 230.493 21.3661 243.793 20.6055 249.05C19.8448 254.307 21.2004 269.693 19.6716 273.85C18.1427 278.007 15.7855 281.118 14.3621 283.279C11.4625 287.587 11.7864 290.811 6.50696 299.938" stroke="#263238" stroke-linecap="round" stroke-linejoin="round"/>
<path d="M45.4883 227.827C42.1821 230.756 42.7921 236.352 43.2289 238.009C43.6657 239.666 41.6398 246.293 40.9695 249.833" stroke="#263238" stroke-linecap="round" stroke-linejoin="round"/>
<path d="M66.4778 230.659C60.4528 230.787 58.585 234.854 58.1934 237.527" stroke="#263238" stroke-linecap="round" stroke-linejoin="round"/>
<path d="M41.0371 224.633C39.2522 224.505 34.6732 227.307 33.7845 231.886" stroke="#263238" stroke-linecap="round" stroke-linejoin="round"/>
<path d="M84.274 236.857C84.274 236.857 85.1627 234.319 86.0514 234.063" stroke="#263238" stroke-linecap="round" stroke-linejoin="round"/>
<path d="M82.4889 247.875C82.0502 249.368 81.5066 250.827 80.8622 252.243C80.1091 253.75 80.8622 256.152 80.8622 256.152" stroke="#263238" stroke-linecap="round" stroke-linejoin="round"/>
<path d="M78.9342 251.355C78.8061 253.9 76.0045 256.627 75.4321 256.152" stroke="#263238" stroke-linecap="round" stroke-linejoin="round"/>
<path d="M54.9854 247.031C54.895 249.833 49.8114 270.303 49.8114 270.303" stroke="#263238" stroke-linecap="round" stroke-linejoin="round"/>
</svg>
