<svg width="25" height="25" viewBox="0 0 25 25" fill="none" xmlns="http://www.w3.org/2000/svg">
<path d="M15.2437 9.34375C14.7151 9.34375 14.3237 9.47706 14.0174 9.64545C13.9682 9.47082 13.8069 9.34297 13.6166 9.38117H11.2903C11.0604 9.34297 10.874 9.52929 10.945 9.77097V18.3465C10.874 18.5648 11.0604 18.7519 11.2903 18.7363H13.6166C13.8466 18.7519 14.0329 18.5648 14.0329 18.3348L14.0322 13.1521C14.0314 13.1497 14.0228 12.9018 14.1795 12.7311C14.305 12.5954 14.521 12.5261 14.8196 12.5261C15.3169 12.5261 15.5383 12.7295 15.621 13.1848V18.3348C15.5391 18.5648 15.7254 18.7519 15.9554 18.7363H18.4072C18.6372 18.7519 18.8235 18.5648 18.7409 18.3348V13.0117C18.8228 10.305 16.8948 9.34375 15.2437 9.34375ZM17.9902 17.9567H16.3717V13.1848C16.3717 12.2641 15.7769 11.6934 14.8203 11.6934C14.2793 11.6934 13.8583 11.8525 13.5683 12.1659C13.1653 12.6024 13.1964 13.156 13.283 13.2791V17.9567H11.7066V10.1764H13.2003V10.4383C13.1997 10.5163 13.2211 10.593 13.2621 10.6594C13.3031 10.7258 13.362 10.7793 13.432 10.8137C13.502 10.8481 13.5804 10.8621 13.658 10.8541C13.7356 10.846 13.8094 10.8162 13.8708 10.7681L13.9799 10.6839C14.2957 10.4352 14.6223 10.1771 15.2444 10.1771C15.8884 10.1771 17.9909 10.3822 17.9909 13.0125V17.9567H17.9902Z" fill="#003478"/>
<path d="M8.60132 5.46094C7.72661 5.46094 7.01562 6.17193 7.01562 7.04663C7.01562 7.92133 7.72661 8.63232 8.60132 8.63232C9.47602 8.63232 10.187 7.92133 10.187 7.04663C10.187 6.17193 9.47602 5.46094 8.60132 5.46094ZM8.60132 7.79972C8.18657 7.79972 7.84823 7.46137 7.84823 7.04663C7.84823 6.63189 8.18657 6.29354 8.60132 6.29354C9.01606 6.29354 9.3544 6.63189 9.3544 7.04663C9.3544 7.46137 9.01606 7.79972 8.60132 7.79972Z" fill="#003478"/>
<path d="M9.71428 9.34375H7.40045C7.17047 9.34375 6.98415 9.53007 7.04184 9.77175V18.3473C6.98415 18.5656 7.17047 18.7527 7.40045 18.7371H9.71428C9.94426 18.7527 10.1306 18.5656 10.1306 18.3356V9.76005C10.1306 9.64964 10.0867 9.54375 10.0087 9.46568C9.93058 9.38761 9.82469 9.34375 9.71428 9.34375ZM9.38062 17.9575H7.81675V10.1771H9.38062V17.9575Z" fill="#003478"/>
<path d="M12.5 0C5.60684 0 0 5.60684 0 12.5C0 19.3932 5.60684 25 12.5 25C19.3932 25 25 19.3932 25 12.5C25 5.60684 19.3932 0 12.5 0ZM12.5 24.1674C6.0668 24.1674 0.832606 18.9332 0.832606 12.5C0.832606 6.0668 6.0668 0.832606 12.5 0.832606C18.9332 0.832606 24.1674 6.0668 24.1674 12.5C24.1674 18.9332 18.9332 24.1674 12.5 24.1674Z" fill="#003478"/>
</svg>
