<svg width="25" height="25" viewBox="0 0 25 25" fill="none" xmlns="http://www.w3.org/2000/svg">
<path d="M12.5 0C5.60805 0 0 5.60684 0 12.5C0 19.3932 5.60805 25 12.5 25C19.392 25 25 19.3932 25 12.5C25 5.60684 19.392 0 12.5 0ZM12.5 24.1674C6.0672 24.1674 0.834113 18.9332 0.834113 12.5C0.834113 6.0668 6.0672 0.832606 12.5 0.832606C18.9328 0.832606 24.1659 6.0668 24.1659 12.5C24.1659 18.9332 18.9328 24.1674 12.5 24.1674Z" fill="#003478"/>
<path d="M19.3533 8.63801C19.4398 8.47794 19.511 8.31011 19.5661 8.13673C19.5916 8.0563 19.5921 7.97003 19.5676 7.88931C19.5431 7.80859 19.4946 7.7372 19.4287 7.68459C19.3627 7.63198 19.2823 7.6006 19.1982 7.59461C19.114 7.58862 19.03 7.6083 18.9573 7.65104C18.5579 7.88836 18.1255 8.06517 17.6742 8.17571C17.1264 7.68127 16.4149 7.40717 15.677 7.40625C15.2761 7.40656 14.8794 7.48782 14.5106 7.64517C14.1419 7.80251 13.8087 8.0327 13.5311 8.32193C13.2534 8.61116 13.037 8.95347 12.8949 9.32836C12.7527 9.70324 12.6877 10.103 12.7038 10.5036C10.9506 10.2829 9.34968 9.39565 8.23311 8.02603C8.19033 7.97414 8.13565 7.93334 8.07373 7.90711C8.01182 7.88087 7.94448 7.86997 7.87744 7.87533C7.81041 7.88068 7.74566 7.90214 7.68869 7.93788C7.63173 7.97361 7.58423 8.02258 7.55023 8.0806C7.29455 8.51945 7.15559 9.0165 7.14658 9.52433C7.13757 10.0322 7.25883 10.5338 7.49878 10.9815C7.43993 10.9914 7.38339 11.012 7.33195 11.0423C7.26892 11.0825 7.21703 11.1379 7.18106 11.2034C7.1451 11.269 7.12621 11.3425 7.12615 11.4173C7.12615 12.3021 7.51982 13.1144 8.15437 13.6664L8.12709 13.6937C8.07918 13.7479 8.04623 13.8136 8.03146 13.8844C8.0167 13.9552 8.02064 14.0287 8.0429 14.0975C8.17522 14.5103 8.39615 14.8892 8.69024 15.2077C8.98432 15.5262 9.34445 15.7765 9.74542 15.9412C8.92191 16.343 8.0003 16.4997 7.09029 16.3926C6.99675 16.3831 6.90269 16.4049 6.82285 16.4545C6.743 16.5042 6.68189 16.5789 6.64907 16.667C6.61756 16.7558 6.61697 16.8526 6.64739 16.9418C6.67782 17.0309 6.73747 17.1072 6.81667 17.1582C8.05382 17.9522 9.49305 18.3741 10.9631 18.3736C15.7807 18.3736 18.6603 14.46 18.6603 10.6766L18.6595 10.5488C19.1264 10.1843 19.532 9.74736 19.8608 9.25467C19.9106 9.18018 19.9351 9.09164 19.9306 9.00215C19.9262 8.91267 19.893 8.82699 19.8361 8.75781C19.7792 8.68863 19.7015 8.63962 19.6145 8.61804C19.5276 8.59647 19.436 8.60347 19.3533 8.63801ZM17.993 10.0062C17.9364 10.0469 17.891 10.1011 17.8607 10.1639C17.8305 10.2266 17.8165 10.296 17.82 10.3656C17.8246 10.4685 17.827 10.573 17.827 10.6759C17.827 14.0499 15.2599 17.5402 10.9639 17.5402C10.1976 17.5405 9.43684 17.4119 8.71331 17.1597C9.57985 16.9937 10.3939 16.6221 11.087 16.0761C11.1545 16.0229 11.2039 15.9502 11.2285 15.8678C11.253 15.7855 11.2515 15.6975 11.2242 15.6161C11.1969 15.5346 11.1451 15.4635 11.0759 15.4126C11.0067 15.3617 10.9235 15.3334 10.8376 15.3316C10.5014 15.3252 10.1715 15.2398 9.87445 15.0825C9.57737 14.9251 9.32142 14.7002 9.12725 14.4257C9.32447 14.4125 9.5178 14.3797 9.70567 14.329C9.79659 14.3047 9.87659 14.2503 9.9326 14.1746C9.98861 14.099 10.0173 14.0066 10.0141 13.9125C10.0108 13.8184 9.97577 13.7282 9.91467 13.6566C9.85356 13.585 9.76999 13.5363 9.6776 13.5183C9.29798 13.441 8.9465 13.2621 8.66075 13.0005C8.37501 12.7389 8.16575 12.4045 8.05537 12.0331C8.26273 12.0854 8.47555 12.1158 8.68836 12.1228C8.87155 12.122 9.0415 12.0097 9.0984 11.8336C9.15531 11.6574 9.08827 11.4633 8.93314 11.3603C8.56634 11.116 8.28392 10.7643 8.12445 10.3534C7.96497 9.94244 7.93622 9.49232 8.04212 9.06445C9.39621 10.4539 11.2247 11.2813 13.1622 11.3814C13.2994 11.3822 13.4194 11.3331 13.5028 11.2325C13.5862 11.1319 13.6182 10.9986 13.5886 10.8708C13.482 10.4116 13.5297 9.93006 13.7243 9.50071C13.9189 9.07137 14.2496 8.71814 14.6651 8.49569C15.0807 8.27324 15.558 8.19397 16.0232 8.27015C16.4884 8.34633 16.9155 8.57371 17.2384 8.9171C17.2868 8.96874 17.3476 9.00722 17.4149 9.0289C17.4823 9.05059 17.5541 9.05477 17.6235 9.04106C17.7521 9.01533 17.8792 8.98571 18.0047 8.9514C17.9481 8.99376 17.8893 9.03306 17.8285 9.06912C17.7477 9.11864 17.6861 9.19423 17.654 9.28342C17.6219 9.37261 17.6211 9.47009 17.6518 9.55979C17.6825 9.64949 17.7428 9.72606 17.8228 9.77688C17.9028 9.8277 17.9978 9.84974 18.092 9.83936L18.2339 9.82143C18.1558 9.88579 18.0754 9.94742 17.993 10.0062Z" fill="#003478"/>
</svg>
